<?xml version="1.0" encoding="utf-8"?>
<!-- Generator: Adobe Illustrator 22.1.0, SVG Export Plug-In . SVG Version: 6.00 Build 0)  -->
<svg version="1.1" id="Layer_2_1_" xmlns="http://www.w3.org/2000/svg" xmlns:xlink="http://www.w3.org/1999/xlink" x="0px" y="0px"
	 viewBox="0 0 2560 1440" style="enable-background:new 0 0 2560 1440;" xml:space="preserve">
<style type="text/css">
	.st0{fill:#E7FFD8;}
	.st1{opacity:0.3;}
	.st2{fill:#73BFA4;}
	.st3{fill:#FFFFFF;}
	.st4{fill:none;}
	.st5{fill:#C0E74D;}
	.st6{fill:#017439;}
	.st7{fill:#4EAE48;}
	.st8{fill:none;stroke:#C0E74D;stroke-width:2;stroke-miterlimit:10;}
	.st9{fill:none;stroke:#017439;stroke-width:2;stroke-miterlimit:10;}
	.st10{fill:none;stroke:#F2FADB;stroke-width:2;stroke-miterlimit:10;}
	.st11{fill:#D5E0CE;}
	.st12{fill:#A46A34;}
	.st13{fill:#5A4738;}
	.st14{fill:none;stroke:#5A4738;stroke-linecap:round;stroke-linejoin:round;}
	.st15{fill:none;stroke:#5A4738;stroke-width:0.32;stroke-linecap:round;stroke-linejoin:round;}
</style>
<title>IECS_illustrated_websiteLayout</title>
<rect class="st0" width="2560" height="1440"/>
<g class="st1">
	<path class="st2" d="M2378.7,1005.1c-29.3-54-285.7-42-320.9-43c-104.5-3.1-210-4.9-313.7-18.6c-1.3-0.2-2.2-1.3-2-2.6
		c0.1-1.1,1-1.9,2-2c63.3-7.5,66.6-28.7,35.6-29.9c-44.6-1.7-89.2-2.1-133.8-2.3c-9,0-7.6-7.5-1.3-11.7
		c61.7-40.9-185.7-29.3-185.7-29.3c-51.9,5.6-20.8,12,55.8,23.4c32.2,4.8,6.7,17.3-7,24.7c-23.8,12.9-81,34.8-44.6,64.9
		c11,9.1,25.3,13.1,39.2,16.3c60.6,13.9,123,14.5,184.9,15.7c59.7,1.1,115.3-4.6,172.9,16.5c41.4,15.2,80.5,36.3,122.6,49.4
		c102.8,32.1,247.1,27.9,347.2-13C2349.8,1055.4,2394.2,1033.5,2378.7,1005.1z"/>
</g>
<path class="st3" d="M2115.2,155.3v-6l-3.6,2.7c-29.3-25.4-73.7-22.2-99,7.2c-0.1,0.1-0.2,0.2-0.3,0.3
	c-12.7-11.9-26.2-25.8-40.3-32.5c-51.5-24.6-104.8,4-140.6,43.4c-4.8-4.3-9.9-8.2-15-10.7c-37.7-18-76.8,8.2-99.3,38.5
	c-7.9,10.8-19.7,18.2-32.8,20.7c0,0-0.1,0-0.1,0.1s0,0.1,0.1,0.1h450.4l0,0c0.8-4.6,1.3-9.2,1.3-13.8
	C2136,186.5,2128.5,168.5,2115.2,155.3z"/>
<path class="st3" d="M254.1,280.8c2.5,0,5.4,0,7,2c3.8,4.9-6.3,15-3.5,19c3.4,4.8,24.5,0,42-12.5c13.1-9.4,14.8-16.3,26-19
	c7-1.7,19.3-2,25,5c8,9.8-2.4,27.6,3.5,31c4.7,2.7,13.1-7.9,21-4.5c3.1,1.4,4.9,4.4,6,7h-194C187.1,308.8,241.6,280.8,254.1,280.8z"
	/>
<path class="st3" d="M646.5,182.3c2.5,0,5.5,0,7,2c3.8,4.9-6.3,15-3.5,19c3.4,4.8,24.6,0,42-12.5c13.1-9.4,14.8-16.3,26-19
	c7-1.7,19.3-2,25,5c8,9.8-2.3,27.6,3.5,31c4.7,2.7,13.2-7.9,21-4.5c3.2,1.4,4.9,4.4,6,7h-194C579.5,210.3,633.9,182.3,646.5,182.3z"
	/>
<path class="st3" d="M748,157.9c3.1,0,6.8,0,8.8,3.7c4.8,9.1-7.9,28-4.4,35.6c4.2,9,30.8-0.1,52.7-23.4
	c16.5-17.5,18.5-30.6,32.6-35.6c8.8-3.1,24.2-3.7,31.4,9.4c10,18.4-3,51.7,4.4,58c5.9,5.1,16.5-14.7,26.3-8.4
	c3.9,2.5,6.2,8.2,7.5,13.1H663.9C663.9,210.3,732.2,157.8,748,157.9z"/>
<line class="st4" x1="241.8" y1="627.2" x2="249.5" y2="631.1"/>
<path class="st5" d="M1845,552.8c94.3-26.8,184.2-66.2,275.7-100.9c88.9-33.7,182.5-56.7,277.8-60.1c54-1.9,108.1,2.7,161,13.7
	c1.4,0.3,2-1.9,0.6-2.2c-92.7-19.4-188.1-18-280.9,0.2c-47.4,9.3-93.9,22.6-139.4,38.9c-46.7,16.7-92.6,36-138.8,54
	c-51.5,20-103.5,39.1-156.7,54.2c-0.6,0.2-1,0.8-0.8,1.4C1843.8,552.6,1844.4,552.9,1845,552.8L1845,552.8z"/>
<path class="st6" d="M463.7,1440c-1.4-7.9-1.9-14.4,1.7-16.3c7-3.8,24.8,18.3,29.7,14.8c3.1-2.2-3.5-11.4,0.4-22.9
	c0.5-1.4,3-8.8,8.9-12.3c15.5-9.2,42.4,14.8,48.7,8.1c3.1-3.3-2.6-10,1.7-20.3c1.1-2.6,2.7-6.5,6.3-8.9c10.7-7,26.4,7.8,34.3,1.7
	c4.2-3.2,1.2-8.5,4.2-16.5c4.8-12.9,22.4-25.2,41.1-22.5c18.2,2.7,32.8,19.1,33.5,39v56.2H463.7z"/>
<path class="st7" d="M548,1304.1c10.2-5,40,34.6,66.7,88.5c8.3,16.7,15.2,32.9,20.6,47.3h-42.2c-5.2-9-10.4-18.8-15.4-29.1
	C551.1,1356.9,537.8,1309.2,548,1304.1z"/>
<line class="st8" x1="563.2" y1="1328.5" x2="613.8" y2="1440"/>
<path class="st9" d="M615.1,1440c-30.7-46.9-17.6-109.9,29.4-140.6c0,0,0.1,0,0.1-0.1"/>
<circle class="st9" cx="653.6" cy="1293.9" r="10.6"/>
<circle class="st9" cx="2143.5" cy="813.5" r="34.5"/>
<polyline class="st9" points="2143.5,906.2 2143.5,816.9 2156.5,810.1 "/>
<polyline class="st9" points="2143.5,816.6 2143.5,806.9 2134.7,798.1 "/>
<path class="st6" d="M2226,1440c2.5-14,3.3-25.6-3-29c-12.4-6.8-44.2,32.6-52.8,26.4c-5.4-3.9,6.2-20.4-0.8-40.8
	c-0.8-2.5-5.3-15.6-15.9-21.9c-27.5-16.4-75.5,26.4-86.8,14.3c-5.5-5.9,4.7-17.7-3-36.2c-1.9-4.6-4.9-11.6-11.3-15.8
	c-19.1-12.4-46.9,13.9-61.1,3c-7.6-5.8-2.2-15.2-7.6-29.4c-8.6-23-39.9-44.9-73.2-40c-32.5,4.8-58.3,33.9-59.6,69.4v100L2226,1440z"
	/>
<path class="st5" d="M1796.7,1440c-26.4-77.5-34-133-16-141.9c21.5-10.6,73.6,48.3,130,141.9H1796.7z"/>
<path class="st7" d="M1801.4,1193.8c18.5-9.1,72.5,62.7,120.8,160.4c13.9,28,26.4,56.6,37.4,85.8h-76.3c-9.3-16.4-18.8-34.1-28-52.8
	C1807.1,1289.6,1782.9,1203,1801.4,1193.8z"/>
<line class="st8" x1="1829" y1="1237.9" x2="1920.8" y2="1440"/>
<path class="st8" d="M2174.9,1203.2c-17.8-8.8-69.8,60.3-116.2,154.3c-13.4,26.9-25.4,54.4-36,82.5h73.4c9-15.8,18.1-32.8,26.9-50.8
	C2169.4,1295.2,2192.6,1212,2174.9,1203.2z"/>
<line class="st8" x1="2156.2" y1="1240.1" x2="2058.7" y2="1440"/>
<path class="st8" d="M2046.9,1440c54.7-83.6,31.2-195.6-52.3-250.3c-0.1,0-0.1-0.1-0.2-0.1"/>
<circle class="st8" cx="1978.3" cy="1179.9" r="18.8"/>
<path class="st10" d="M1957.1,1438.8v-65.9"/>
<circle class="st10" cx="1957.1" cy="1355.3" r="17.5"/>
<path class="st5" d="M229.3,798.4c186.9,4.3,372.7,29.7,554,75.5c51.4,13,102.2,27.9,153,43.2c1.8,0.6,2.7-2.3,0.8-2.9
	c-90.5-27.3-181.6-52.1-274.4-70.7c-91-18.2-182.9-31.4-275.4-39.4c-52.6-4.6-105.2-7.5-158-8.7
	C227.4,795.4,227.4,798.4,229.3,798.4L229.3,798.4z"/>
<circle class="st7" cx="279" cy="681.7" r="25.3"/>
<line class="st9" x1="279" y1="696" x2="279" y2="750.1"/>
<path class="st7" d="M2288.8,604.7c-0.9,19.3-17.2,34.3-36.5,33.4c-18.1-0.8-32.6-15.3-33.4-33.4c0-19.3,15.6-95,35-95
	S2288.8,585.3,2288.8,604.7z"/>
<line class="st9" x1="2253.9" y1="624.4" x2="2253.9" y2="699.3"/>
<path class="st7" d="M499,1094.9c0,39.6-32.1,71.7-71.7,71.7c-39.6,0-71.7-32.1-71.7-71.7c0,0,0,0,0,0c0-39.6,32.1-194.7,71.7-194.7
	S499,1055.3,499,1094.9z"/>
<path class="st9" d="M450.8,1071.1c-4,5.4-23.5,29.2-23.5,29.2v188.7"/>
<polyline class="st9" points="427.3,949 427.3,1050.2 404.9,1020.8 "/>
<path class="st5" d="M698.5,1440c14.8-43.5,19.1-74.7,9-79.7c-12.1-6-41.3,27.1-73,79.7H698.5z"/>
<ellipse class="st11" cx="1943.2" cy="939.3" rx="28.9" ry="4.7"/>
<path class="st12" d="M1922.4,913.9c0.1,0.7,0.2,1.3,0.3,2c0.2,4.8-3.9,8-3.7,10.4c0.1,1,0.3,2.7-0.2,12.1c0,0.5-0.4,0.8-0.9,0.8
	l0,0c-0.5,0-0.9-0.4-0.9-0.9c0,0,0,0,0,0c0.1-2.9,0.2-5.1,0.5-10.9c0.5-11.8,0.6-14.8,0.1-16.9c-0.8-3.1-5.2-8.5-4.9-14.5
	c0.3-7.8,3.8-11.3,4-13.5c0.4-5.6,0.7-9.4,0.7-13c0-0.5,0.4-0.9,0.9-0.9h4.9c0.5,0,0.9,0.4,0.9,0.9c0,0,0,0,0,0
	c-0.2,4.4-2,15.5,0,15.5c4.1-0.1,6.7,5.2,6.8,5.2"/>
<path class="st13" d="M1942.3,911.9c0,0-0.6,6.3,6.1,12.3c0,0-3.1,7.2-0.5,14.2h1.8c0,0-3.3-3.8,1.7-13.1c0.3-0.5,0.2-1.1-0.2-1.6
	c-1.5-1.8-5.2-6.9-3.6-12.7L1942.3,911.9z"/>
<ellipse class="st12" cx="1937.1" cy="901.6" rx="20.7" ry="13.5"/>
<path class="st12" d="M1947.3,900.2c0,0-3.2,2.4-1,5.8c1.9,3,9.8,17.1,11.3,19.8c0.2,0.3,0.2,0.6,0.2,0.9l-2.3,13.1h2.4l3.8-16.4
	l-8-17.8"/>
<path class="st14" d="M1936.6,857.1c-0.1,0.5-0.9,3.8-1.4,5.6c-0.2,0.7-0.7,1.3-1.4,1.5l-10.9,3.6h-4.3l-10.9-3.6
	c-0.7-0.2-1.2-0.8-1.4-1.5c-0.4-1.8-1.3-5.1-1.4-5.6"/>
<path class="st14" d="M1927.8,860.1c0,0.4-0.4,2.7-0.6,4c0,0.4-0.3,0.8-0.6,1l-4,2.1c-0.6,0.3-1.2,0.5-1.8,0.5l0,0
	c-0.6,0-1.3-0.2-1.8-0.5l-4-2.1c-0.3-0.2-0.6-0.6-0.6-1c-0.2-1.2-0.6-3.6-0.6-4"/>
<path class="st14" d="M1937.7,859.4c-0.1,0.5-1,3.8-1.4,5.6c-0.2,0.7-0.7,1.3-1.4,1.5L1924,870l-7.4-0.2l-10.9-3.6
	c-0.7-0.2-1.2-0.8-1.4-1.5c-0.4-1.8-1.3-5.1-1.4-5.6"/>
<path class="st15" d="M1947.3,900.2c0,0-3.2,2.4-1,5.8c1.9,3,9.8,17.1,11.3,19.8c0.2,0.3,0.2,0.6,0.2,0.9l-2.3,13.1h2.4l3.8-16.4
	l-8-17.8"/>
<path class="st12" d="M1921.2,897.4c-2.6,4.8-2.3,7.9-1.8,9.8c0.4,1.5,1.1,2.2,4.2,7c0.2,0.3,0.3,0.6,0.4,0.9c0.3,1,0.2,2.1-0.2,3
	c-0.9,2.4,0.5,7.2,0.6,13.6s-1.3,10.9-0.4,11.2c0.5,0.1,1.2-1.2,1.2-1.2c0.6-1.2,0.7-2.7,0.4-4c-0.1-0.5-0.1-0.6,1.1-8.1
	c0.7-4.2,1.4-9.3,2.4-15.3l0.7-3.5"/>
<path class="st15" d="M1921.2,897.4c-2.6,4.8-2.3,7.9-1.8,9.8c0.4,1.5,1.1,2.2,4.2,7c0.2,0.3,0.3,0.6,0.4,0.9c0.3,1,0.2,2.1-0.2,3
	c-0.9,2.4,0.5,7.2,0.6,13.6s-1.3,10.9-0.4,11.2c0.5,0.1,1.2-1.2,1.2-1.2c0.6-1.2,0.7-2.7,0.4-4c-0.1-0.5-0.1-0.6,1.1-8.1
	c0.7-4.2,1.4-9.3,2.4-15.3l0.7-3.5"/>
<path class="st12" d="M1917.1,867.2c0-0.1-0.1-0.2-0.2-0.2l0,0c-0.1-0.1-0.2-0.1-0.2-0.2c-0.3-0.3-0.5-0.7-0.7-1.2
	c-0.1-0.5-0.2-0.9-0.3-1.4c0-0.1-0.1-0.2-0.1-0.3c0-0.1-0.1-0.2-0.1-0.3c-0.1-0.2-0.2-0.4-0.3-0.6c-0.2-0.4-0.5-0.7-0.9-1
	c-0.3-0.3-0.7-0.6-1.1-0.8c-0.4-0.2-0.9-0.5-1.3-0.6c-0.5-0.2-1.1-0.3-1.7-0.3c-0.1,0-0.2,0.1-0.2,0.2c-0.1,0.6-0.1,1.1,0,1.7
	c0.1,0.5,0.2,1,0.3,1.4c0.1,0.4,0.3,0.8,0.6,1.2c0.2,0.4,0.5,0.7,0.8,1c0.2,0.2,0.4,0.3,0.6,0.4l0.3,0.2l0.3,0.2
	c0.5,0.2,0.9,0.4,1.3,0.6c0.4,0.2,0.7,0.5,1,0.8l0,0c0.5,0.6,1.2,1.2,1.8,1.6c0.2,0.1,0.4,0.2,0.6,0.3c0.2,0.1,0.5,0,0.6-0.2
	c0.1-0.1,0.1-0.3,0-0.4C1917.8,868.5,1917.4,867.8,1917.1,867.2z"/>
<path class="st12" d="M1923.9,867.2c0.1-0.1,0.2-0.2,0.3-0.2l0,0c0.1,0,0.2-0.1,0.3-0.2c0.3-0.3,0.6-0.6,0.8-1
	c0.2-0.4,0.4-0.9,0.6-1.3c0.1-0.1,0.1-0.2,0.2-0.3l0.2-0.3c0.1-0.2,0.2-0.4,0.4-0.6c0.3-0.3,0.6-0.6,1-0.8c0.4-0.2,0.8-0.4,1.2-0.6
	c0.5-0.2,0.9-0.3,1.4-0.4c0.6-0.1,1.1-0.1,1.7,0c0.1,0,0.2,0.1,0.2,0.2c0,0.6-0.1,1.1-0.3,1.7c-0.1,0.5-0.3,0.9-0.6,1.3
	c-0.2,0.4-0.5,0.8-0.8,1.1c-0.3,0.3-0.6,0.6-1,0.9c-0.2,0.1-0.4,0.2-0.6,0.3l-0.3,0.1c-0.1,0-0.2,0.1-0.3,0.1
	c-0.5,0.1-1,0.2-1.4,0.4c-0.4,0.1-0.8,0.3-1.1,0.6l0,0c-0.6,0.5-1.3,0.9-2.1,1.3c-0.2,0.1-0.4,0.2-0.6,0.2c-0.2,0.1-0.5-0.1-0.5-0.3
	c0-0.1,0-0.3,0.1-0.4C1923,868.4,1923.5,867.8,1923.9,867.2z"/>
<path class="st12" d="M1924.1,867h-7.6c-0.3,0-0.6,0.3-0.6,0.6l0.2,7.8c0,0.2,0,0.4,0.1,0.6c0.5,1.9,1.5,3.7,2.7,5.2
	c0.8,0.9,2.3,1,3.2,0.2c0.1-0.1,0.1-0.1,0.2-0.2c1-1.7,1.7-3.5,2.2-5.4c0.1-0.4,0.1-0.8,0.1-1.2v-7.1
	C1924.6,867.2,1924.4,867,1924.1,867z"/>
</svg>
