<svg id="Layer_2" data-name="Layer 2" xmlns="http://www.w3.org/2000/svg" viewBox="0 0 1023.84 599.94"><defs><style>.cls-1{fill:#cce3f2;}.cls-2{fill:#f2f2f2;}.cls-3,.cls-4,.cls-5{opacity:0.6;}.cls-4{fill:#99c6e4;}.cls-5{fill:#a46a34;}.cls-6{fill:#4eae48;}.cls-7{fill:none;stroke:#017439;stroke-miterlimit:10;stroke-width:0.8px;}</style></defs><title>IECS_illustrated_cityscape_</title><rect class="cls-1" width="1024" height="574.73"/><rect class="cls-2" x="-0.08" y="390.19" width="1024" height="209.75"/><g class="cls-3"><path class="cls-4" d="M1023.92,316.14h-3.83v-1.66h3.83v-6h-11.45v-36.9h-18V216.17H964.31v54.17h-50V377.11H847.5v-28H804.76V302.68H765.89v-14H702.4v80.88H671.62V310.22a11.66,11.66,0,0,0-12.56-11.62,11.79,11.79,0,0,0-10.66,11.86v21.2H617.33v20.65H604.56V312H558.31v40.3H545.53V331.66H514.47v-21.2a11.79,11.79,0,0,0-10.66-11.86,11.66,11.66,0,0,0-12.56,11.62v59.32H460.47V288.66H397v14H358.11v46.47H315.36v28H248.55V270.34h-50V216.17H168.41v174h855.51ZM234.37,281.5H209.76v-2.43h24.61Zm329.25,36.83H561.2V315.9h2.42Zm14.51,20.44H575.7v-2.43h2.43Zm9,0h-2.42v-2.43h2.42Zm14.51-20.44h-2.42V315.9h2.42ZM953.11,281.5H928.5v-2.43h24.61Z"/><path class="cls-4" d="M145.15,352.31H132.38V331.66H101.31v-21.2A11.79,11.79,0,0,0,90.65,298.6a11.66,11.66,0,0,0-12.56,11.62v59.32H47.31V288.66H-.08V390.19H168.38V312H145.15Zm17.4-16H165v2.43h-2.42ZM148,315.9h2.42v2.43H148Z"/></g><path class="cls-5" d="M1023.84,575.8c0-.08.16-.15,0-.15-16.22-.56-34.84,0-53.26,0-16.46,0-32.29.24-47.05.69h0c-14.76-.45-30.57-.69-47-.69-38.15,0-77.16,0-114.28,4.74-94.84,12.21-196.78.58-293.22,1.24-8.57.06-17.15.2-25.69-.14-10.66-.43-21.12-1.6-31.65-2.52-48.35-4.21-99.44-4.14-148.34-2.45v.23c-32.57,1.28-58.86,3.6-73.65,6.47a.53.53,0,0,1-.25,0c-20.46-4.95-74-8.49-136.73-8.49-18.42,0-36.44.31-52.67.86-.16,0,0,.07,0,.15v24.25c0,.08-.17,0,0,0H1023.84c.17,0,0,.08,0,0Z"/><path class="cls-6" d="M278.52,557.93a7.88,7.88,0,1,1-15.75,0c0-4.35,3.52-21.4,7.87-21.4S278.52,553.58,278.52,557.93Z"/><line class="cls-7" x1="270.64" y1="562.38" x2="270.64" y2="579.25"/><circle class="cls-6" cx="119.66" cy="548.38" r="16.54"/><line class="cls-7" x1="119.66" y1="557.73" x2="119.66" y2="593.16"/><circle class="cls-6" cx="757.45" cy="564.61" r="10"/><line class="cls-7" x1="757.45" y1="570.26" x2="757.45" y2="591.68"/><path class="cls-6" d="M944.1,557.79a12.75,12.75,0,0,1-25.49,0c0-7,5.71-34.61,12.75-34.61S944.1,550.75,944.1,557.79Z"/><polyline class="cls-7" points="931.36 592.28 931.36 564.99 936.22 559.46"/><line class="cls-7" x1="931.36" y1="580.82" x2="931.36" y2="534.53"/><line class="cls-7" x1="927.21" y1="546.86" x2="931.36" y2="549.82"/></svg>