<svg id="Layer_2" data-name="Layer 2" xmlns="http://www.w3.org/2000/svg" viewBox="0 0 1194.47 1275.77"><defs><style>.cls-1,.cls-4,.cls-6,.cls-8{fill:none;}.cls-1{stroke:#4d4d4d;}.cls-1,.cls-6{stroke-linecap:round;stroke-linejoin:round;}.cls-1,.cls-8{stroke-width:2px;}.cls-2,.cls-5{fill:#001903;}.cls-3{fill:#4eae48;}.cls-4{stroke:#fff;}.cls-4,.cls-5,.cls-8{stroke-miterlimit:10;}.cls-5{stroke:#000;}.cls-6{stroke:#001903;}.cls-7{fill:#76b56f;}.cls-8{stroke:#017439;}</style></defs><title>IECS_illustrated_assets</title><path class="cls-1" d="M1,1242.18H797.62"/><path class="cls-1" d="M817.47,1242.18h372"/><path class="cls-1" d="M1189.47,992.63H392.85"/><path class="cls-1" d="M373,992.63H1"/><path class="cls-2" d="M857.1,1200.32a22.68,22.68,0,0,0-22.52,25.45h45a22.6,22.6,0,0,0-22.52-25.45Z"/><path class="cls-2" d="M1111.09,1193.47v32.3h55.71v-32.3Z"/><path class="cls-3" d="M1105.87,1119.86V1197h44.06l6.36,6.36h26.17v-9.61a3.26,3.26,0,0,0-3.25-3.25h0l-4.74-33.41V1148a9.75,9.75,0,0,0-9.75-9.76h0S1171.22,1119.86,1105.87,1119.86Z"/><path class="cls-2" d="M1134,1179l-9.81-2.2a2.28,2.28,0,0,1-2.27-2.28v-15.88a2.27,2.27,0,0,1,2.27-2.27H1134a2.27,2.27,0,0,1,2.27,2.27v18.09A2.27,2.27,0,0,1,1134,1179Z"/><path d="M1164.53,1179l-18.09-2.2a2.28,2.28,0,0,1-2.27-2.28v-15.88a2.27,2.27,0,0,1,2.27-2.27h15.33a2.27,2.27,0,0,1,2.27,2.27l2.76,18.09A2.27,2.27,0,0,1,1164.53,1179Z"/><polygon class="cls-2" points="1174.47 1157.12 1170.16 1157.12 1174.47 1183.07 1178.15 1183.07 1174.47 1157.12"/><path class="cls-4" d="M1137.64,1203.39a20,20,0,0,0-20,20,21.54,21.54,0,0,0,.15,2.42h39.61a19.41,19.41,0,0,0,.15-2.42A20,20,0,0,0,1137.64,1203.39Z"/><path class="cls-4" d="M1137.64,1198.85a24,24,0,0,0-24,24,23.44,23.44,0,0,0,.18,2.91h47.65a23.44,23.44,0,0,0,.18-2.91A24,24,0,0,0,1137.64,1198.85Z"/><path class="cls-2" d="M1021.59,1200.32a22.7,22.7,0,0,0-22.7,22.7,25.06,25.06,0,0,0,.17,2.75h45a22.68,22.68,0,0,0-22.52-25.45Z"/><path class="cls-2" d="M1021.59,1203.27a20.07,20.07,0,0,0-20.07,20.06,19.61,19.61,0,0,0,.16,2.44h39.81a19.61,19.61,0,0,0,.16-2.44A20.06,20.06,0,0,0,1021.59,1203.27Z"/><path d="M909.48,1200.32A22.68,22.68,0,0,0,887,1225.77h2.61a19.61,19.61,0,0,1-.15-2.44,20.06,20.06,0,1,1,40.12,0,21.75,21.75,0,0,1-.15,2.44H932a22.68,22.68,0,0,0-22.52-25.45Z"/><path class="cls-3" d="M1157.37,1207.13h25.09v20.43h-25.09Z"/><path class="cls-2" d="M1178.44,1211.27h4a0,0,0,0,1,0,0v9.52a0,0,0,0,1,0,0h-4a2.16,2.16,0,0,1-2.16-2.16v-5.21A2.16,2.16,0,0,1,1178.44,1211.27Z"/><rect class="cls-5" x="1060.87" y="1201.3" width="46.35" height="22.74" rx="4.41" ry="4.41"/><rect class="cls-2" x="937.77" y="1200.94" width="51.88" height="22.74" rx="4.41" ry="4.41"/><rect class="cls-2" x="997.54" y="1206.26" width="122.02" height="19.51"/><rect class="cls-2" x="757.59" y="1183.07" width="333.08" height="12.33"/><path class="cls-2" d="M1028.06,1194h29.29a0,0,0,0,1,0,0v2.05a2.06,2.06,0,0,1-2.06,2.06h-25.18a2.06,2.06,0,0,1-2.06-2.06V1194A0,0,0,0,1,1028.06,1194Z"/><path class="cls-2" d="M1021.11,1200.32h27.22a7.76,7.76,0,0,1,7.76,7.76V1221a0,0,0,0,1,0,0h-35a0,0,0,0,1,0,0v-20.65A0,0,0,0,1,1021.11,1200.32Z"/><rect x="994.57" y="1202.81" width="4.32" height="11.1"/><circle cx="1137.64" cy="1223.14" r="17.85"/><circle class="cls-4" cx="1137.64" cy="1223.14" r="12.5"/><circle cx="1021.59" cy="1223.14" r="17.85"/><circle class="cls-4" cx="1021.59" cy="1223.14" r="12.5"/><path class="cls-2" d="M783.21,1225.77a22.7,22.7,0,1,1,45,0Z"/><circle cx="857.1" cy="1223.14" r="17.85"/><circle class="cls-4" cx="857.1" cy="1223.14" r="12.5"/><circle cx="805.73" cy="1223.14" r="17.85"/><circle class="cls-4" cx="805.73" cy="1223.14" r="12.5"/><rect class="cls-2" x="769.18" y="1195.4" width="216.89" height="8.1"/><rect class="cls-2" x="1037.24" y="1195.11" width="11.99" height="8.39" rx="4.19" ry="4.19"/><path class="cls-2" d="M909.48,1200.32A22.68,22.68,0,0,0,887,1225.77h45a22.68,22.68,0,0,0-22.52-25.45Z"/><circle cx="909.48" cy="1223.14" r="17.85"/><circle class="cls-4" cx="909.48" cy="1223.14" r="12.5"/><path class="cls-6" d="M1148.84,1139h-31.16"/><rect class="cls-7" x="760.62" y="1166.62" width="45.11" height="8.94"/><rect class="cls-7" x="806.91" y="1166.56" width="45.11" height="8.94"/><rect class="cls-7" x="853.19" y="1166.5" width="45.11" height="8.94"/><rect class="cls-7" x="899.47" y="1166.44" width="45.11" height="8.94"/><rect class="cls-7" x="945.75" y="1166.38" width="45.11" height="8.94"/><rect class="cls-7" x="992.03" y="1166.33" width="45.11" height="8.94"/><rect class="cls-7" x="1038.31" y="1166.27" width="45.11" height="8.94"/><rect class="cls-7" x="760.62" y="1152.1" width="45.11" height="8.94"/><rect class="cls-7" x="806.91" y="1152.04" width="45.11" height="8.94"/><rect class="cls-7" x="853.19" y="1151.98" width="45.11" height="8.94"/><rect class="cls-7" x="899.47" y="1151.92" width="45.11" height="8.94"/><rect class="cls-7" x="945.75" y="1151.86" width="45.11" height="8.94"/><rect class="cls-7" x="992.03" y="1151.81" width="45.11" height="8.94"/><rect class="cls-7" x="1038.31" y="1151.75" width="45.11" height="8.94"/><rect class="cls-7" x="760.62" y="1137.58" width="45.11" height="8.94"/><rect class="cls-7" x="806.91" y="1137.52" width="45.11" height="8.94"/><rect class="cls-7" x="853.19" y="1137.46" width="45.11" height="8.94"/><rect class="cls-7" x="899.47" y="1137.4" width="45.11" height="8.94"/><rect class="cls-7" x="945.75" y="1137.34" width="45.11" height="8.94"/><rect class="cls-7" x="992.03" y="1137.29" width="45.11" height="8.94"/><rect class="cls-7" x="1038.31" y="1137.23" width="45.11" height="8.94"/><rect class="cls-7" x="760.62" y="1123.06" width="45.11" height="8.94"/><rect class="cls-7" x="806.91" y="1123" width="45.11" height="8.94"/><rect class="cls-7" x="853.19" y="1122.94" width="45.11" height="8.94"/><rect class="cls-7" x="899.47" y="1122.88" width="45.11" height="8.94"/><rect class="cls-7" x="945.75" y="1122.82" width="45.11" height="8.94"/><rect class="cls-7" x="992.03" y="1122.76" width="45.11" height="8.94"/><rect class="cls-7" x="1038.31" y="1122.71" width="45.11" height="8.94"/><path class="cls-3" d="M1027.38,977.84a35,35,0,1,1-69.93,0c0-19.31,15.66-95,35-95S1027.38,958.53,1027.38,977.84Z"/><line class="cls-8" x1="992.42" y1="997.6" x2="992.42" y2="1072.49"/><path class="cls-1" d="M1189.47,757.57H392.85"/><path class="cls-1" d="M373,757.57H1"/><path class="cls-1" d="M18.83,518.66H806.18"/><path class="cls-1" d="M825.8,518.66h367.67"/><path class="cls-1" d="M1189.47,281.67H392.85"/><path class="cls-1" d="M373,281.67H1"/><path class="cls-3" d="M824.21,266.85a26.59,26.59,0,0,1-53.18,0c0-14.69,11.91-72.22,26.59-72.22S824.21,252.16,824.21,266.85Z"/><line class="cls-8" x1="797.62" y1="281.87" x2="797.62" y2="338.83"/><path class="cls-1" d="M1,74.58H797.62"/><path class="cls-1" d="M817.47,74.58h372"/><path class="cls-3" d="M380.53,1211.87a23.61,23.61,0,0,1-47.21,0c0-13,10.57-64.12,23.6-64.12S380.53,1198.83,380.53,1211.87Z"/><line class="cls-8" x1="356.92" y1="1225.2" x2="356.92" y2="1275.77"/><circle class="cls-3" cx="402.38" cy="702.43" r="34.59"/><line class="cls-8" x1="402.38" y1="721.98" x2="402.38" y2="796.08"/><circle class="cls-3" cx="388.29" cy="34.59" r="34.59"/><line class="cls-8" x1="388.29" y1="54.14" x2="388.29" y2="128.23"/></svg>