<svg id="Layer_2" data-name="Layer 2" xmlns="http://www.w3.org/2000/svg" viewBox="0 0 1845.64 350.63"><defs><style>.cls-1{opacity:0.63;}.cls-2{fill:#001903;}</style></defs><title>IECS_illustrated_websiteLayout</title><g class="cls-1"><path class="cls-2" d="M816.52,152.35c-18.34.08-40.38.17-51.88,14.82-28.4,36.18,20,59.83-.94,89.69-25,35.67-104,16-233.31-76.29C433.16,111.16,339.17,41,270.65,14.58,158-28.85.93,25.6,15.74,166.59c3.85,36.74,63.54,184-14.85,184H1313.16S909.5,152,816.52,152.35Z"/><path class="cls-2" d="M1618.07,208.87c-106.94,0-38.86,69.29-59.76,99.14-25,35.67-182-.34-311.33-92.65C1149.75,146,1137.56,94.23,1054.26,74.52,1002.05,62.16,911.05,59.81,869,111.58c-59.25,72.86,71.2,239.05-26,239.05H1845.64S1711,208.87,1618.07,208.87Z"/></g></svg>