<svg id="Layer_2" data-name="Layer 2" xmlns="http://www.w3.org/2000/svg" viewBox="0 0 1187.19 125.38"><defs><style>.cls-1{fill:#fff;}</style></defs><title>IECS_illustrated_assets</title><path class="cls-1" d="M355.22,22.82c1.87,0,4.1,0,5.27,1.51,2.88,3.67-4.76,11.25-2.63,14.28,2.53,3.62,18.46,0,31.58-9.4,9.86-7,11.1-12.28,19.55-14.28,5.3-1.26,14.53-1.5,18.8,3.76,6,7.39-1.78,20.77,2.63,23.31,3.55,2,9.89-5.91,15.79-3.39,2.36,1,3.71,3.3,4.51,5.27H304.84S345.79,22.78,355.22,22.82Z"/><path class="cls-1" d="M827,94.46c2.86,0,6.3,0,8.09,2.31,4.43,5.64-7.3,17.31-4,22,3.89,5.56,28.38-.06,48.55-14.45,15.17-10.83,17.07-18.9,30.06-22,8.14-1.93,22.34-2.29,28.9,5.78,9.24,11.36-11.1,37.28,4,37.28H749.57S812.52,94.4,827,94.46Z"/><path class="cls-1" d="M702,103.27c16.68,0,6.06,10.81,9.32,15.47,3.9,5.56,28.39-.06,48.56-14.45,15.16-10.83,17.06-18.9,30.05-22,8.15-1.93,22.34-2.29,28.91,5.78,9.24,11.36-11.11,37.28,4,37.28H666.52S687.51,103.27,702,103.27Z"/><path class="cls-1" d="M50.38,81.54c1.86,0,4.1,0,5.26,1.5C58.53,86.71,50.89,94.3,53,97.33c2.54,3.62,18.47,0,31.58-9.4,9.87-7,11.1-12.29,19.56-14.29,5.29-1.25,14.52-1.49,18.79,3.76,6,7.39-1.77,20.77,2.64,23.31,3.55,2.05,9.88-5.91,15.79-3.38,2.36,1,3.71,3.3,4.51,5.26H0S41,81.5,50.38,81.54Z"/><path class="cls-1" d="M1111.9,8.65c1.86,0,4.09,0,5.26,1.5,2.88,3.67-4.75,11.26-2.63,14.29,2.53,3.62,18.46,0,31.58-9.4,9.86-7,11.1-12.29,19.55-14.29,5.3-1.25,14.53-1.49,18.8,3.76,6,7.39-7.22,24.25,2.63,24.25H1061.52S1102.46,8.61,1111.9,8.65Z"/></svg>