<svg xmlns="http://www.w3.org/2000/svg" viewBox="0 0 740.11 463.46"><defs><style>.cls-1{fill:#4eae48;}.cls-2{fill:#c0e74d;}.cls-3,.cls-4,.cls-5{fill:none;stroke-miterlimit:10;}.cls-3,.cls-4{stroke:#c0e74d;}.cls-3,.cls-5{stroke-width:2px;}.cls-5{stroke:#017439;}</style></defs><title>IECS_illustrated_assets</title><g id="Layer_2" data-name="Layer 2"><path class="cls-1" d="M2.19,462.46C-.75,445.84-1.74,432.1,5.77,428c14.78-8.1,52.45,38.72,62.68,31.34,6.47-4.66-7.35-24.18.9-48.36,1-2.92,6.31-18.51,18.8-26,32.66-19.49,89.62,31.34,103,17,6.56-7-5.57-21,3.58-43,2.3-5.5,5.76-13.8,13.43-18.81,22.68-14.78,55.68,16.45,72.54,3.58,9-6.85,2.62-18,8.95-34.92,10.21-27.29,47.33-53.31,86.86-47.46,38.56,5.71,69.2,40.24,70.74,82.38V462.46Z"/><path class="cls-2" d="M611.92,462.46c31.32-91.94,40.38-157.82,19-168.37-25.53-12.6-87.35,57.33-154.29,168.37Z"/><path class="cls-1" d="M687.61,1.46C653-15.61,551.77,118.86,461.48,301.81c-28,56.8-51.71,111.58-70,160.65H534.34c17.51-30.69,35.16-63.87,52.41-98.82C677.05,180.69,722.2,18.54,687.61,1.46Z"/><path class="cls-3" d="M42.62,74.37C71.75,60,157,173.2,233,327.22a1471.87,1471.87,0,0,1,58.93,135.24H171.65c-14.74-25.84-29.6-53.77-44.12-83.19C51.51,225.25,13.5,88.74,42.62,74.37Z"/><line class="cls-3" x1="73.16" y1="134.79" x2="232.99" y2="462.46"/><line class="cls-4" x1="636" y1="84.04" x2="464.03" y2="462.46"/><path class="cls-3" d="M579,462.46A214.53,214.53,0,0,0,516.7,165.35"/><circle class="cls-3" cx="497.66" cy="153.83" r="22.28"/><circle class="cls-5" cx="666.26" cy="266.61" r="72.85"/><polyline class="cls-5" points="666.26 462.46 666.26 273.87 638.79 259.45"/><polyline class="cls-5" points="666.26 273.25 666.26 252.69 684.89 234.06"/><path class="cls-5" d="M83.54,462.46V384.22"/><circle class="cls-5" cx="83.54" cy="363.42" r="20.8"/></g></svg>