<svg id="Layer_2" data-name="Layer 2" xmlns="http://www.w3.org/2000/svg" viewBox="0 0 1183.49 228.49"><defs><style>.cls-1{fill:#4eae48;}</style></defs><title>IECS_illustrated_assets</title><path class="cls-1" d="M928.56,126.71c-9.42,0-20.74.09-26.64,7.61-14.58,18.57,24.05,57,13.32,72.29-12.83,18.31-93.43-.18-159.81-47.56-49.91-35.63-56.17-62.18-98.93-72.3-25-5.91-67.27-7.35-90.39,14C545,94.16,527.78,90.2,516.77,90.25c-12.79.06-28.16.12-36.17,10.34-19.8,25.22,32.66,77.37,18.08,98.18-17.41,24.87-126.89-.24-217-64.59C213.86,85.79,205.36,49.73,147.28,36c-36.4-8.61-99.84-10.26-129.19,25.84C-23.22,112.62,67.73,228.49,0,228.49H1183.49S976.28,126.5,928.56,126.71Z"/></svg>