<svg id="Layer_2" data-name="Layer 2" xmlns="http://www.w3.org/2000/svg" viewBox="0 0 487.94 273.46"><defs><style>.cls-1{fill:#4d4d4d;}</style></defs><title>IECS_illustrated_cityscape_</title><path class="cls-1" d="M440.31,35.32c8.06,4.87,14.24,13.07,18.41,21.35.89,1.76,5.6,9.75,4.6,11.85,6.9-14.62,23.62-2.52,24.59,26.68.89,27-18.63,51.32-32.22,59,4.93-2.19,12-3.62,14.63,1.1,1.69,3.05.19,6.88-1.72,9.8a37.39,37.39,0,0,1-13.27,12.25C465.5,182,470.82,194,470.17,205.13s-6.25,21.44-13,30.37A71.5,71.5,0,0,1,448,245.79c-.36-27.21-51.92,4.22-89.94-38.58-26.09-29.36,21.69-55.68,18.34-59A84.82,84.82,0,0,1,363,130.38c-16.69-28.63-4.89-67.23,19.92-87.48C398,30.56,422.66,24.66,440.31,35.32Z"/><path class="cls-1" d="M12.62,133.49c-.92-9.38,2-19.23,6.11-27.53.88-1.76-9.39-28.2,13.44-46.43C53.27,42.68,84.44,43.8,98.72,50.1c-4.7-2.64-6.9-8.24-4.67-14.51,6-16.89,60-28.27,109.69,6.24,73.4,51,.81,67.3-.65,71.11a51.11,51.11,0,0,1-47.74-2.6,9.38,9.38,0,0,0-14,6.89,84.55,84.55,0,0,1-6.29,21.43c-13,30.5-51,44.11-82.05,36.32C34.07,170.22,14.62,154,12.62,133.49Z"/><path class="cls-1" d="M148.17,114.1c-.92-9.37,2-19.23,6.11-27.53.88-1.76-9.39-28.19,13.44-46.43,21.1-16.84,52.27-15.73,66.55-9.42-4.7-2.65-6.9-8.25-4.67-14.52,6-16.88,60-28.27,109.69,6.24,73.4,51,.81,67.3-.65,71.11A51.15,51.15,0,0,1,290.9,91a9.38,9.38,0,0,0-14,6.88,84.84,84.84,0,0,1-6.29,21.43c-13,30.5-51,44.11-82.05,36.32C169.62,150.84,150.17,134.61,148.17,114.1Z"/><path class="cls-1" d="M235.36,129c-.91-9.38,2-19.23,6.11-27.53.88-1.76-9.38-28.2,13.45-46.43,21.1-16.85,52.27-15.73,66.54-9.43-4.7-2.65-6.89-8.24-4.67-14.51C322.53,15,344.48,9.78,359.43,7.68c34.59-4.86,99.24,13,102.05,56.56,1.39,21.65-17.81,36.2-35.64,44.23a51.15,51.15,0,0,1-47.74-2.59,9.38,9.38,0,0,0-14,6.89,85,85,0,0,1-6.29,21.43c-13,30.5-51,44.11-82.05,36.31C256.81,165.76,237.36,149.54,235.36,129Z"/><path class="cls-1" d="M204.47,94.63c-.39,9.41,3,19.08,7.65,27.14,1,1.71-37.23,38.45-13.4,55.36,22,15.63,62.49,15.73,76.38,8.62-4.54,2.91,13.62-4.11,16.19,2,6.94,16.51,65.62,32.2,113.31-5.06,70.4-55-7.13-74.61-8.8-78.33a51.17,51.17,0,0,0-47.52,5.29,9.39,9.39,0,0,1-14.38-6.09,84.5,84.5,0,0,0-7.49-21c-14.68-29.72-53.39-41.16-84-31.62C223.81,56.74,205.31,74,204.47,94.63Z"/><path class="cls-1" d="M21.18,140.58c2.72,9,9.13,17,16.12,23.14,1.48,1.3,2,29.65,30.08,37.84,25.91,7.57,54.32-5.31,65.13-16.56-3.34,4.23-3.25,10.24,1.2,15.2,11.95,13.34,66.22,3.35,99.09-47.45,48.54-75-24.82-62.57-27.62-65.53-8.87-.3-136.63-19.38-162.4-.36C27.07,98.45,15.24,120.84,21.18,140.58Z"/><path class="cls-1" d="M450.63,208.38c-3-2.79,30.18-25.56-.35-20.57,5.43-.89,5.77-14.91,4.25-18.15-3.26-7-12.19-9.89-19-11.63-4.73-1.21-10.89,1.74-15.08,3.56a110.28,110.28,0,0,0-21.79,12.73c-10.77,8-27.16,22.61-21.88,37.91,4.27,12.38,17.94,17.2,29.51,20.1,5.81,1.46,11.91,2.45,17.52,4.62a34.91,34.91,0,0,1,13.55,9.45c5.72,6.51,7.53,14.73,10.48,22.62.43,1.14.82,4,2.11,4.44.21.08,1.37-7.4,1.84-11,.91-7,1.31-14.16,3.11-21,.87-3.33,2.74-6.2,4.6-9s4.48-6.15,3.65-9.6c-.59-2.45-2.5-4.52-4.16-6.31C456.33,213.66,453.47,211,450.63,208.38Z"/><ellipse class="cls-1" cx="24.4" cy="127.05" rx="24.4" ry="23.65"/></svg>