<svg id="Layer_2" data-name="Layer 2" xmlns="http://www.w3.org/2000/svg" viewBox="0 0 365.99 315.14"><defs><style>.cls-1{fill:#c0e74d;}</style></defs><title>IECS_illustrated_indicator</title><path class="cls-1" d="M208.42,0A157.25,157.25,0,0,0,85.75,58.68q-4.74,4.7-9.48,9.78C72,73,67.8,77.69,63.56,82.59c-2.12,2.42-4.24,5-6.36,7.61S53,95.6,50.85,98.55c-1.06,1.46-2.12,2.88-3.18,4.37l-3.18,4.48-3.18,4.48-1.59,2.25-1.58,2.18c-4.24,5.93-8.48,11.37-12.72,16.38S17,142.31,12.71,146.51c-2.12,2.09-4.24,4.08-6.35,5.9-1.06.9-2.12,1.79-3.18,2.6A38.74,38.74,0,0,1,0,157.26v.62a38.74,38.74,0,0,1,3.18,2.25c1.06.81,2.12,1.7,3.18,2.6,2.11,1.82,4.23,3.81,6.35,5.9q6.36,6.3,12.71,13.82c4.24,5,8.48,10.45,12.72,16.38L39.72,201l1.59,2.24,3.18,4.49,3.18,4.48c1.06,1.48,2.12,2.9,3.18,4.36,2.12,2.95,4.23,5.66,6.35,8.36s4.24,5.18,6.36,7.6c4.24,4.9,8.47,9.59,12.71,14.13q4.74,5.08,9.48,9.78A157.57,157.57,0,1,0,208.42,0Z"/></svg>