<svg xmlns="http://www.w3.org/2000/svg" viewBox="0 0 966.51 179.99"><defs><style>.cls-1{fill:#fff;}</style></defs><title>IECS_illustrated_cloud_2</title><g id="Layer_2" data-name="Layer 2"><path class="cls-1" d="M963.71,180a.11.11,0,0,0,.11-.08,163.13,163.13,0,0,0,2.69-29.52A150.41,150.41,0,0,0,686.53,74c-14.15,24-40.12,13.51-59.43,2.62-24-13.5-42.87-32.24-72.53-30-23.48,1.76-44.5,14.89-63.33,29-35.54,26.7-91.16,72.3-135.8,37.15-22.13-17.43-46.71-47.37-72.63-59.75C202.25,14.59,118.39,70.58,70.37,135.5A113.75,113.75,0,0,1,.09,179.78a.11.11,0,0,0,0,.21Z"/></g></svg>