<svg id="Layer_2" data-name="Layer 2" xmlns="http://www.w3.org/2000/svg" viewBox="0 0 1024 407"><defs><style>.cls-1{fill:#dbe4c7;opacity:0.6;}.cls-2,.cls-4{fill:none;}.cls-2{stroke:#4d4d4d;stroke-linecap:round;stroke-linejoin:round;}.cls-3{fill:#4eae48;}.cls-4{stroke:#017439;stroke-miterlimit:10;stroke-width:2px;}</style></defs><title>IECS_illustrated_cityscape_background_Artboard 19</title><path class="cls-1" d="M1024,100.18h-3.82V98.52H1024v-6h-11.45v-37h-18V0H964.4V54.29h-50v107H847.63v-28H804.89V86.69H766v-14H702.57v81H671.79V94.25a11.67,11.67,0,0,0-12.56-11.64,11.82,11.82,0,0,0-10.66,11.88v21.25H617.52v20.7H604.75V96.05H558.5v40.39H545.74v-20.7H514.68V94.49A11.81,11.81,0,0,0,504,82.61a11.67,11.67,0,0,0-12.56,11.64V153.7H460.69v-81H397.21v14H358.36v46.58H315.62v28H248.83v-107h-50V0H168.7V174.39H1024ZM234.65,65.47H210V63h24.61Zm329.17,36.91h-2.43V99.94h2.43Zm14.5,20.49H575.9v-2.44h2.42Zm9,0h-2.42v-2.44h2.42Zm14.51-20.49h-2.42V99.94h2.42ZM953.21,65.47h-24.6V63h24.6Z"/><path class="cls-1" d="M145.45,136.44H132.68v-20.7H101.62V94.49A11.81,11.81,0,0,0,91,82.61,11.67,11.67,0,0,0,78.4,94.25V153.7H47.63v-81H.25V174.39H168.67V96.05H145.45Zm17.39-16h2.43v2.44h-2.43Zm-14.5-20.49h2.42v2.44h-2.42Z"/><path class="cls-1" d="M1024.87,358.47c0-.16.16-.29,0-.31-16.24-1.11-34.87-.1-53.31-.1-16.48,0-32.32.49-47.09,1.39h0c-14.76-.9-30.59-1.39-47.07-1.39-38.18,0-77.22-.06-114.38,9.5C668.05,392,566,368.72,469.49,370c-8.58.12-17.17.4-25.71-.28-10.68-.86-21.15-3.21-31.68-5-48.41-8.43-99.54-8.29-148.49-4.92v.47c-32.6,2.57-58.91,7.2-73.71,13a.36.36,0,0,1-.25,0c-20.48-9.92-74-17-136.86-17-18.43,0-36.48.61-52.71,1.72-.17,0,0,.14,0,.3v48.53c0,.16-.18,0,0,0H1024.87c.17,0,0,.16,0,0Z"/><path class="cls-2" d="M348.5,175c214.51,0,428.34,0,643,.05"/><path class="cls-2" d="M35.64,175.09c102.51-.08,204.62-.08,307-.05"/><path class="cls-2" d="M288.54,254.38q352.23-.12,703.72,0"/><path class="cls-2" d="M35.66,254.38c82.47-.08,165.36-.08,248,0"/><path class="cls-3" d="M339.33,338a12,12,0,1,1-23.95,0c0-6.61,5.36-32.52,12-32.52S339.33,331.38,339.33,338Z"/><line class="cls-4" x1="327.36" y1="344.76" x2="327.36" y2="370.41"/><circle class="cls-3" cx="97.87" cy="323.49" r="25.14"/><line class="cls-4" x1="97.87" y1="337.69" x2="97.87" y2="391.54"/><circle class="cls-3" cx="644.67" cy="347.05" r="16.29"/><line class="cls-4" x1="644.67" y1="356.26" x2="644.67" y2="391.15"/><path class="cls-3" d="M948.7,335.94a20.76,20.76,0,1,1-41.51,0c0-11.46,9.29-56.38,20.75-56.38S948.7,324.48,948.7,335.94Z"/><polyline class="cls-4" points="927.94 392.13 927.94 347.67 935.86 338.67"/><line class="cls-4" x1="927.94" y1="373.46" x2="927.94" y2="298.06"/><line class="cls-4" x1="921.19" y1="318.14" x2="927.94" y2="322.96"/></svg>