<svg id="Layer_2" data-name="Layer 2" xmlns="http://www.w3.org/2000/svg" viewBox="0 0 1024 576"><defs><style>.cls-1{fill:#ffbc00;}.cls-2{fill:#c0e74d;}.cls-3{fill:#017439;}.cls-4{fill:#4eae48;}.cls-12,.cls-13,.cls-5,.cls-6,.cls-7,.cls-8{fill:none;}.cls-5{stroke:#c0e74d;}.cls-5,.cls-6,.cls-7,.cls-8{stroke-miterlimit:10;}.cls-5,.cls-6,.cls-7{stroke-width:0.84px;}.cls-6,.cls-8{stroke:#017439;}.cls-7{stroke:#f2fadb;}.cls-8{stroke-width:0.77px;}.cls-9{fill:#d5e0ce;}.cls-10{fill:#a46a34;}.cls-11{fill:#5a4738;}.cls-12,.cls-13{stroke:#5a4738;stroke-linecap:round;stroke-linejoin:round;}.cls-12{stroke-width:0.42px;}.cls-13{stroke-width:0.13px;}.cls-14{opacity:0.3;}.cls-15{fill:#73bfa4;}</style></defs><title>IECS_illustrated_headerBackground</title><path class="cls-1" d="M191.79,158a15.67,15.67,0,1,1-1.19-6,15.81,15.81,0,0,1,1.19,6"/><line x1="48.72" y1="232.71" x2="51.95" y2="234.33"/><path class="cls-2" d="M723.24,201.38c39.26-11.2,76.71-27.45,114.78-42,37.63-14.37,77.24-24.25,117.61-25.73a284.73,284.73,0,0,1,68.24,5.73c.61.13.86-.8.26-.92-38.62-8-78.28-7.58-117-.16-41,7.88-79.18,24.13-117.93,39.21C767.45,186,745.48,194,723,200.45a.48.48,0,0,0,.25.93Z"/><path class="cls-2" d="M0,207.34c78.71-1.47,149.39,44.51,227.91,43.93,23-.16,45.89-5.1,68.12-10.5a.63.63,0,0,0-.33-1.22c-20.53,5-41.69,9.63-62.87,10.36C213.4,250.58,194,248.05,175,244c-37.95-8.1-74.37-21.95-112.19-30.58C42.22,208.71,21.2,205.68,0,206.08a.63.63,0,0,0,0,1.26Z"/><path class="cls-2" d="M251.77,248.85q12.1-1.78,23.9-4.19c-27.58-16.43-63-29.23-101.7-29.23a190.4,190.4,0,0,0-64,11.45C157.05,240.91,203.89,255.9,251.77,248.85Z"/><path class="cls-3" d="M142.1,574.67c-.58-3.31-.78-6,.71-6.87,2.95-1.61,10.45,7.71,12.49,6.25,1.28-.93-1.47-4.82.18-9.63.2-.59,1.25-3.69,3.74-5.18,6.51-3.88,17.85,6.24,20.51,3.39,1.31-1.4-1.11-4.19.71-8.56a7.72,7.72,0,0,1,2.68-3.74c4.51-3,11.09,3.27,14.44.71,1.79-1.36.52-3.58,1.79-6.95,2-5.44,9.42-10.62,17.29-9.46,7.68,1.14,13.79,8,14.09,16.41v23.63Z"/><path class="cls-4" d="M177.54,517.5c4.29-2.12,16.84,14.56,28,37.25a215.33,215.33,0,0,1,8.68,19.92H196.54c-2.17-3.81-4.36-7.92-6.5-12.26C178.85,539.73,173.25,519.62,177.54,517.5Z"/><line class="cls-5" x1="183.94" y1="527.74" x2="205.26" y2="574.67"/><path class="cls-6" d="M205.79,574.67a42.73,42.73,0,0,1,12.4-59.17"/><circle class="cls-6" cx="221.99" cy="513.21" r="4.44"/><circle class="cls-6" cx="898.81" cy="238.4" r="14.51"/><polyline class="cls-6" points="898.8 277.4 898.8 239.85 904.27 236.98"/><polyline class="cls-6" points="898.8 239.72 898.8 235.63 895.1 231.92"/><path class="cls-3" d="M883.52,574.67c1-5.89,1.39-10.77-1.27-12.22-5.24-2.88-18.6,13.73-22.23,11.11-2.29-1.65,2.61-8.57-.31-17.15-.36-1-2.24-6.56-6.67-9.21-11.58-6.91-31.78,11.12-36.52,6-2.33-2.5,2-7.46-1.27-15.25-.81-2-2-4.89-4.76-6.66-8-5.24-19.75,5.83-25.73,1.27-3.18-2.43-.92-6.39-3.17-12.39-3.62-9.68-16.78-18.9-30.8-16.83-13.68,2-24.54,14.27-25.09,29.22v42.07Z"/><path class="cls-2" d="M702.9,574.67c-11.11-32.6-14.32-56-6.74-59.71,9.05-4.46,31,20.34,54.71,59.71Z"/><path class="cls-4" d="M704.9,471.11c7.77-3.84,30.52,26.37,50.8,67.47a393,393,0,0,1,15.73,36.09h-32.1c-3.93-6.89-7.9-14.35-11.77-22.2C707.27,511.37,697.13,474.94,704.9,471.11Z"/><line class="cls-5" x1="716.49" y1="489.66" x2="755.13" y2="574.67"/><path class="cls-5" d="M862,475c-7.48-3.69-29.36,25.38-48.87,64.92A375.55,375.55,0,0,0,798,574.67H828.9c3.78-6.63,7.59-13.81,11.32-21.36C859.74,513.77,869.5,478.72,862,475Z"/><line class="cls-5" x1="854.18" y1="490.54" x2="813.15" y2="574.67"/><path class="cls-5" d="M808.17,574.67a76.08,76.08,0,0,0-22.08-105.36"/><circle class="cls-5" cx="779.33" cy="465.23" r="7.9"/><circle class="cls-6" cx="214.79" cy="216.51" r="6.64"/><polyline class="cls-6" points="214.78 234.36 214.78 217.17 217.29 215.85"/><polyline class="cls-6" points="214.78 217.11 214.78 215.24 213.09 213.54"/><path class="cls-7" d="M770.42,574.15V546.41"/><circle class="cls-7" cx="770.42" cy="539.03" r="7.38"/><circle class="cls-4" cx="64.38" cy="282.16" r="10.63"/><line class="cls-6" x1="64.38" y1="288.17" x2="64.38" y2="310.93"/><path class="cls-4" d="M954.33,118.13a9.46,9.46,0,1,1-18.91,0c0-5.22,4.23-25.68,9.45-25.68S954.33,112.91,954.33,118.13Z"/><line class="cls-6" x1="944.87" y1="123.48" x2="944.87" y2="143.73"/><path class="cls-4" d="M132,428.7a22.08,22.08,0,0,1-44.15,0c0-12.19,9.88-59.95,22.07-59.95S132,416.51,132,428.7Z"/><path class="cls-8" d="M117.19,421.36c-1.23,1.66-7.25,9-7.25,9v58.11"/><polyline class="cls-6" points="109.94 374.74 109.94 408.59 102.46 398.74"/><path class="cls-2" d="M240.86,574.67c6.24-18.31,8-31.43,3.78-33.53-5.08-2.51-17.39,11.42-30.72,33.53Z"/><ellipse class="cls-9" cx="812.99" cy="374.02" rx="12.17" ry="1.96"/><path class="cls-10" d="M804.25,363.32a4.56,4.56,0,0,1,.1.83c.1,2-1.62,3.38-1.54,4.37a30.51,30.51,0,0,1-.09,5.1.36.36,0,0,1-.36.35h0a.36.36,0,0,1-.36-.38c0-1.23.1-2.15.2-4.57.22-5,.27-6.24,0-7.1-.35-1.29-2.19-3.57-2.08-6.09.14-3.3,1.61-4.78,1.68-5.67.19-2.35.28-4,.3-5.48a.36.36,0,0,1,.36-.36h2.07a.36.36,0,0,1,.36.38c-.09,1.84-.84,6.53,0,6.5,1.71-.05,2.83,2.2,2.86,2.2"/><path class="cls-11" d="M812.62,362.47s-.26,2.66,2.57,5.18a9.15,9.15,0,0,0-.22,6h.75s-1.37-1.62.73-5.52a.61.61,0,0,0-.07-.66c-.65-.76-2.17-2.89-1.5-5.32Z"/><ellipse class="cls-10" cx="810.42" cy="358.14" rx="8.72" ry="5.67"/><path class="cls-10" d="M814.7,357.56a1.83,1.83,0,0,0-.44,2.43c.8,1.28,4.13,7.19,4.76,8.31a.61.61,0,0,1,.07.4l-1,5.5h1l1.59-6.9-3.38-7.49"/><path class="cls-12" d="M810.21,339.44c-.05.23-.4,1.62-.59,2.37a.88.88,0,0,1-.58.62l-4.58,1.5h-1.81l-4.59-1.5a.92.92,0,0,1-.58-.62c-.19-.75-.54-2.14-.59-2.37"/><path class="cls-12" d="M806.51,340.69c0,.16-.18,1.15-.26,1.67a.56.56,0,0,1-.26.44l-1.68.88a1.53,1.53,0,0,1-.76.19h0a1.59,1.59,0,0,1-.76-.19l-1.68-.88a.58.58,0,0,1-.25-.44c-.09-.52-.24-1.51-.27-1.67"/><path class="cls-12" d="M810.68,340.39c0,.23-.4,1.62-.59,2.37a.92.92,0,0,1-.58.62l-4.59,1.5-3.11-.1-4.59-1.5a.9.9,0,0,1-.58-.62c-.18-.74-.54-2.14-.58-2.36"/><path class="cls-13" d="M814.7,357.56a1.83,1.83,0,0,0-.44,2.43c.8,1.28,4.13,7.19,4.76,8.31a.61.61,0,0,1,.07.4l-1,5.5h1l1.59-6.9-3.38-7.49"/><path class="cls-10" d="M803.74,356.37a5.2,5.2,0,0,0-.75,4.1c.18.62.46.93,1.75,2.95a1.66,1.66,0,0,1,.17.37,1.9,1.9,0,0,1-.1,1.25c-.38,1,.23,3,.26,5.74s-.53,4.6-.18,4.69.5-.48.52-.51a2.56,2.56,0,0,0,.17-1.7c0-.21,0-.25.46-3.41.27-1.78.61-3.93,1-6.46l.3-1.49"/><path class="cls-13" d="M803.74,356.37a5.2,5.2,0,0,0-.75,4.1c.18.62.46.93,1.75,2.95a1.66,1.66,0,0,1,.17.37,1.9,1.9,0,0,1-.1,1.25c-.38,1,.23,3,.26,5.74s-.53,4.6-.18,4.69.5-.48.52-.51a2.56,2.56,0,0,0,.17-1.7c0-.21,0-.25.46-3.41.27-1.78.61-3.93,1-6.46l.3-1.49"/><path class="cls-10" d="M802,343.67a.18.18,0,0,0-.1-.11h0a.33.33,0,0,1-.11-.09,1.37,1.37,0,0,1-.27-.49c-.06-.19-.09-.39-.14-.6l0-.15c0-.05,0-.09,0-.14a1.23,1.23,0,0,0-.12-.26,1.46,1.46,0,0,0-.36-.42,2.56,2.56,0,0,0-.46-.33,2.89,2.89,0,0,0-.56-.26,2.81,2.81,0,0,0-.7-.13.11.11,0,0,0-.11.08,2.47,2.47,0,0,0,0,.72,2.65,2.65,0,0,0,.13.6,3.56,3.56,0,0,0,.24.52,1.41,1.41,0,0,0,.34.43l.23.17.13.07.14.06c.19.08.39.16.57.25a1.4,1.4,0,0,1,.39.33h0a4.53,4.53,0,0,0,.77.69l.24.13a.18.18,0,0,0,.24-.25A8.13,8.13,0,0,1,802,343.67Z"/><path class="cls-10" d="M804.87,343.68a.19.19,0,0,1,.12-.09h0a.29.29,0,0,0,.12-.07,1.35,1.35,0,0,0,.35-.43c.09-.18.16-.38.24-.57l.06-.14a.54.54,0,0,1,.07-.13A1,1,0,0,1,806,342a1.57,1.57,0,0,1,.42-.35,2.78,2.78,0,0,1,.52-.25,3.39,3.39,0,0,1,.59-.15,2.85,2.85,0,0,1,.72,0,.11.11,0,0,1,.09.11,2.83,2.83,0,0,1-.12.7,3,3,0,0,1-.24.57,4.29,4.29,0,0,1-.32.47,2.05,2.05,0,0,1-.41.37l-.26.12-.15,0-.15,0c-.2.05-.41.09-.59.15a1.41,1.41,0,0,0-.45.25h0a4.78,4.78,0,0,1-.88.55l-.26.08a.19.19,0,0,1-.2-.29A8.2,8.2,0,0,0,804.87,343.68Z"/><path class="cls-10" d="M804.94,343.59h-3.2a.23.23,0,0,0-.24.23l.11,3.29a1.94,1.94,0,0,0,0,.24,6.33,6.33,0,0,0,1.14,2.2,1,1,0,0,0,1.43,0,9.22,9.22,0,0,0,.92-2.26,2.68,2.68,0,0,0,.06-.48v-3A.23.23,0,0,0,804.94,343.59Z"/><g class="cls-14"><path class="cls-15" d="M966.11,400.16c-10.45-19.27-101.94-15-114.5-15.35-37.29-1.1-74.93-1.75-111.93-6.63a.83.83,0,0,1,0-1.65c22.58-2.67,23.76-10.24,12.7-10.66-15.91-.61-31.83-.75-47.74-.82-3.21,0-2.71-2.68-.47-4.18,22-14.59-66.26-10.45-66.26-10.45-18.52,2-7.42,4.28,19.91,8.35,11.49,1.71,2.39,6.17-2.49,8.81-8.5,4.6-28.91,12.42-15.92,23.16,3.93,3.24,9,4.67,14,5.81,21.62,5,43.89,5.18,66,5.6,21.31.4,41.15-1.64,61.7,5.89,14.77,5.43,28.72,12.95,43.74,17.63C861.5,437.12,913,435.62,948.7,421,955.8,418.1,971.65,410.29,966.11,400.16Z"/></g></svg>