<svg id="Layer_2" data-name="Layer 2" xmlns="http://www.w3.org/2000/svg" viewBox="0 0 1187.19 225.54"><defs><style>.cls-1{fill:#001903;}</style></defs><title>IECS_illustrated_assets</title><path class="cls-1" d="M525.22,98c-11.8,0-26,.11-33.38,9.53-18.26,23.27,12.85,38.49-.6,57.69-16.07,22.95-66.9,10.31-150.08-49.07C278.62,71.5,218.16,26.37,174.09,9.38,101.65-18.56.6,16.47,10.12,107.16,12.6,130.79,51,225.54.57,225.54h844.1S585,97.74,525.22,98Z"/><path class="cls-1" d="M1040.8,134.35c-68.78,0-25,44.57-38.44,63.77-16.07,22.95-117.08-.22-200.26-59.6-62.54-44.64-70.38-77.91-124-90.59C644.55,40,586,38.47,558.94,71.77c-38.11,46.87,45.8,153.77-16.69,153.77h644.94S1100.61,134.35,1040.8,134.35Z"/></svg>