<svg id="Layer_1" data-name="Layer 1" xmlns="http://www.w3.org/2000/svg" viewBox="0 0 12844.6 477.92"><defs><style>.cls-1{fill:#525252;opacity:0.14;isolation:isolate;}.cls-2{fill:#cc9600;}.cls-3{fill:#ffbc00;}.cls-4{fill:#e2dfe6;}.cls-5{fill:#669fcc;}.cls-6{fill:#45474a;}.cls-7{fill:#f3482a;}.cls-8{fill:#001903;}.cls-10,.cls-9{fill:none;stroke:#fff;stroke-width:2px;}.cls-9{stroke-miterlimit:10;}.cls-10{stroke-linecap:round;stroke-linejoin:round;}.cls-11{fill:#4d4d4d;}.cls-12{fill:gray;}.cls-13{fill:#ccc;}.cls-14{fill:#f5b339;}.cls-15{fill:#ffdd3e;}.cls-16{fill:#282f3a;}.cls-17{fill:#3a454f;}.cls-18{fill:#dd3e3e;}.cls-19{fill:#fff;}.cls-20{fill:#f2e5c0;}.cls-21{fill:#ec9100;}.cls-22{fill:#e6dfcc;}.cls-23{fill:#ccc3a8;}.cls-24{fill:#3c8fdf;}.cls-25{fill:#54a6ef;}.cls-26{fill:#bdd6db;}.cls-27{fill:#ffa312;}.cls-28{fill:#8e8c75;}.cls-29{fill:#aaae8b;}</style></defs><title>traffic_loop</title><path class="cls-1" d="M12621.47,404.26l-367.75,7.79c-48.18,0-117.51-39.19-117.51-87.27V182c0-48.33,69.33-87.42,117.51-87.42l367.75,7.79L12616,79.91s18.49-4.52,22.2,22.71a78.42,78.42,0,0,0,11.86-.6l66.37-3.06c43.15-4,98.47,7.58,129.11,38.23,26.33,26.32,30.15,67.27,30.15,107.46V262c0,40.2-4.07,81.14-30.15,107.47-30.64,30.64-86,40.74-129.11,36.72l-66.37-1.56c-3.92-.35-7.89-.55-11.86-.6-3.71,27.23-22.2,22.71-22.2,22.71Z" transform="translate(-66.35)"/><path class="cls-2" d="M12668.21,365.73a135.93,135.93,0,0,1,16.88.6l66.36,1.56c43.11,4,98.47-6.13,129.12-36.73,26.33-26.32,30.39-67.32,30.39-107.46V206.32c0-40.19-4.06-81.14-30.39-107.46-30.65-30.65-86-42.26-129.12-38.29l-66.36,3.12a158.62,158.62,0,0,1-16.88.6l-379.41-7.94c-48.23,0-117.46,39-117.46,87.17V286.45c0,48.23,69.28,87.32,117.51,87.32Z" transform="translate(-66.35)"/><path class="cls-3" d="M12664,348.24a160.62,160.62,0,0,1,16.27.56l64.11,1.35c41.7,3.57,95.15-5.37,124.74-32.45,25.48-23.31,29.4-59.48,29.4-95V207.32c0-35.52-3.92-71.74-29.4-95-29.54-27.08-83-37.38-124.74-33.86l-64.11,3A160.68,160.68,0,0,1,12664,82l-366.77-7.08c-46.47-.25-113.44,34.31-113.44,76.92v126.4c0,42.6,67,77.17,113.54,77.17Z" transform="translate(-66.35)"/><path class="cls-4" d="M12673.77,355.38H12659l-8.14,33.06S12673.77,394,12673.77,355.38Z" transform="translate(-66.35)"/><path class="cls-4" d="M12673.77,74.64H12659l-8-33.06S12673.77,36,12673.77,74.64Z" transform="translate(-66.35)"/><path class="cls-5" d="M12898.5,281.12c-12.62,48.13-38.69,58.48-54.87,67.18a107.06,107.06,0,0,1-27.48,9.49A489.29,489.29,0,0,1,12898.5,281.12Z" transform="translate(-66.35)"/><path class="cls-6" d="M12480.05,338.7c-.3-1.11-.55-2.21-.85-3.37h85.4c42.71,0,121.43,20.1,121.43,20.1s-133.59,4.07-201.26,0A164.89,164.89,0,0,1,12480.05,338.7Z" transform="translate(-66.35)"/><path class="cls-6" d="M12476,355.18a577.86,577.86,0,0,1-113.19-19.85h108.52C12472.82,342,12474.37,348.6,12476,355.18Z" transform="translate(-66.35)"/><path class="cls-7" d="M12192.63,298.11a274.44,274.44,0,0,0,73.35,48.33,122.58,122.58,0,0,1-33.51-1.31,75.93,75.93,0,0,1-32.46-28.28,177.52,177.52,0,0,1-12.66-23.12A47,47,0,0,1,12192.63,298.11Z" transform="translate(-66.35)"/><path class="cls-5" d="M12898.5,145.38c-12.62-48.13-38.69-58.48-54.87-67.17a109.39,109.39,0,0,0-27.48-9.21A489.94,489.94,0,0,0,12898.5,145.38Z" transform="translate(-66.35)"/><path class="cls-6" d="M12747.21,109.71c6.79,20.65,13,53.25,13,103.54s-6.18,82.9-13,103.6a40.21,40.21,0,0,1-45.21,27.33l-103.6-20.25a7.61,7.61,0,0,1-6-7.54c.3-52.2,4-103.14,4-103.14s-3.66-50.94-4-103.09a7.63,7.63,0,0,1,6-7.59L12702,82.48A40.18,40.18,0,0,1,12747.21,109.71Z" transform="translate(-66.35)"/><path class="cls-7" d="M12192.63,131.71A271.91,271.91,0,0,1,12266,83.38a124.59,124.59,0,0,0-33.51,1.26A75.69,75.69,0,0,0,12200,113a178.6,178.6,0,0,0-12.66,23.11A58.34,58.34,0,0,0,12192.63,131.71Z" transform="translate(-66.35)"/><path class="cls-6" d="M12480.05,87.8c-.3,1.11-.55,2.21-.85,3.37h85.4c42.71,0,121.43-20.1,121.43-20.1s-133.59-4.07-201.26,0C12482.86,76.45,12481.46,82.18,12480.05,87.8Z" transform="translate(-66.35)"/><path class="cls-6" d="M12476,71.42a577.82,577.82,0,0,0-113.19,19.75h108.52Q12473.58,81.15,12476,71.42Z" transform="translate(-66.35)"/><path class="cls-6" d="M12356,115.79a240.84,240.84,0,0,0,0,194.93c-22.86,8-53.46,11-69.94,12.2a18.08,18.08,0,0,1-17.48-10,225.63,225.63,0,0,1,0-199.35,18.19,18.19,0,0,1,17.48-10C12302.55,104.73,12333.15,107.8,12356,115.79Z" transform="translate(-66.35)"/><path class="cls-1" d="M8399.64,414.41h-154.7a16.43,16.43,0,0,0-16.45,16.43v0h0A16.48,16.48,0,0,1,8212,447.34h-843.9a43.87,43.87,0,0,1-43.87-43.87h0V103.66a43.88,43.88,0,0,1,43.87-43.88H8399.64a43.88,43.88,0,0,1,43.87,43.88h0V370.49a43.86,43.86,0,0,1-43.8,43.92Z" transform="translate(-66.35)"/><rect class="cls-8" x="7355.18" y="103.97" width="981.71" height="217.6"/><rect class="cls-8" x="7276.72" width="859.17" height="425.54" rx="29.01"/><path class="cls-9" d="M7395.89,46.23h648.88a17.11,17.11,0,0,1,17.11,17.09h0V379.51" transform="translate(-66.35)"/><line class="cls-10" x1="8025.37" y1="49.15" x2="8113.43" y2="49.15"/><line class="cls-10" x1="8025.37" y1="382.59" x2="8113.43" y2="382.59"/><rect class="cls-11" x="8152.68" y="42.57" width="252.24" height="340.72" rx="15.25"/><path class="cls-12" d="M8464.46,101.12h12.32a5.85,5.85,0,0,1,5.86,5.84V318.61a5.85,5.85,0,0,1-5.85,5.85h-12.33V101.12Z" transform="translate(-66.35)"/><path class="cls-9" d="M8334.14,92.45h80a12.53,12.53,0,0,1,12.5,12.54h0V320.73a12.51,12.51,0,0,1-12.51,12.51h-80" transform="translate(-66.35)"/><path d="M8463.42,74.58h7.7V351h-7.7a3.26,3.26,0,0,1-3.28-3.26h0V78a3.28,3.28,0,0,1,3.08-3.46Z" transform="translate(-66.35)"/><circle cx="8191.2" cy="385.83" r="18.34"/><circle cx="8191.2" cy="39.91" r="18.34"/><path class="cls-13" d="M7422.24,203.66c0,6.59,1.42,11.56-1.66,17s-8.44,6.62-13.95,9.9-8.89,11.13-15.4,11.13-12.6-3.85-17.92-7-5.58-10.13-8.78-15.64-14.68-8.82-14.68-15.41,6-13.25,9.06-18.76A39,39,0,0,1,7372,170.4c5.35-3.09,12.52-9.13,19.26-9.13a50.17,50.17,0,0,1,21.61,5.12,51.5,51.5,0,0,1,16,15.41C7431.75,187.29,7422.24,197,7422.24,203.66Z" transform="translate(-66.35)"/><path class="cls-13" d="M7582.83,199c0,6.62,1.46,11.55-1.62,17s-8.43,6.67-13.94,9.87-8.9,11.13-15.41,11.13-12.6-3.85-17.95-6.94-5.51-10.17-8.86-15.67-14.68-8.79-14.68-15.41,6.09-13.25,9.17-18.57a39.6,39.6,0,0,1,13.1-14.41c5.35-3.08,12.48-9.13,19.26-9.13a49.84,49.84,0,0,1,21.34,5,51.47,51.47,0,0,1,16.06,15.41C7592.38,182.7,7582.83,192.6,7582.83,199Z" transform="translate(-66.35)"/><path class="cls-13" d="M7678.05,190.25c0-6.62-1.46-11.55,1.62-17s8.44-6.71,13.95-9.9,8.89-11.14,15.4-11.14,12.6,3.86,17.95,6.94,5.59,10.32,8.86,15.68,14.68,8.78,14.68,15.4-6.09,13.26-9.17,18.57a39.56,39.56,0,0,1-13.09,14.52c-5.36,3.09-12.48,9.13-19.26,9.13a49.6,49.6,0,0,1-21.5-5,51.55,51.55,0,0,1-16.06-15.4C7668.5,206.59,7678.05,196.88,7678.05,190.25Z" transform="translate(-66.35)"/><path class="cls-13" d="M7823.78,192.14c0,6.59,1.42,11.56-1.66,17s-8.43,6.7-13.94,9.9-8.9,11.13-15.41,11.13-12.6-3.85-17.91-7-5.59-10.13-8.75-15.64-14.71-8.82-14.71-15.41,6.12-13.25,9.2-18.6A39.58,39.58,0,0,1,7773.7,159c5.32-3.08,12.48-9.13,19.07-9.13a50.2,50.2,0,0,1,21.53,5,51.17,51.17,0,0,1,16,15.41C7833.29,175.77,7823.78,185.52,7823.78,192.14Z" transform="translate(-66.35)"/><path class="cls-13" d="M7838.92,183.09c.54-6.59-.54-11.75,3-16.8s8.94-6,14.68-8.78,9.75-10.4,16.33-9.9,12.29,4.86,17.34,8.36,4.77,10.56,7.51,16.3,14,9.9,13.44,16.48-7.12,12.75-10.63,17.84a39,39,0,0,1-14.18,13.4c-5.54,2.66-13.13,8.13-19.76,7.71a50.67,50.67,0,0,1-21-6.63,51.89,51.89,0,0,1-14.79-16.91C7828.13,198.65,7838.42,189.68,7838.92,183.09Z" transform="translate(-66.35)"/><path class="cls-13" d="M7981.17,199.77c-2.54,6.12-3.12,11.56-8,15.1s-10.36,3-16.68,3.85-12.44,6.94-18.57,4.43-10.2-8.36-13.94-13.25-1.31-11.56-2.16-17.83-10.28-13.72-7.7-19.84,10.71-9.9,15.41-13.68a39.83,39.83,0,0,1,17.6-8.47c6.13-.81,15-3.85,21.15-1.2a49.74,49.74,0,0,1,18.1,12.91,51,51,0,0,1,8.94,20.49C7996.2,188.29,7983.64,193.64,7981.17,199.77Z" transform="translate(-66.35)"/><path class="cls-13" d="M8057.72,203.43c-3.86,5.47-5.44,10.44-11,13.06s-10.75.73-17.07.23-13.67,4.08-19.26.35-8.16-10.37-10.82-15.91,1.19-11.56,1.69-17.88-7.08-15.41-3.31-21,12.56-7.43,18.11-10.05a39.26,39.26,0,0,1,19-4.51c6.12.5,15.4-.42,20.87,3.35a50.12,50.12,0,0,1,14.91,16.29,52,52,0,0,1,4.55,21.92C8074.86,195.42,8061.49,198,8057.72,203.43Z" transform="translate(-66.35)"/><path class="cls-13" d="M8030.44,114.14c0,6.62,1.47,11.55-1.62,17s-8.43,6.7-13.94,9.9-8.9,11.13-15.41,11.13-12.59-3.85-17.95-6.94-5.55-10.17-8.74-15.67-14.72-8.79-14.72-15.41,6.13-13.25,9.21-18.57a39.52,39.52,0,0,1,13-14.68c5.35-3.08,12.48-9.13,19.26-9.13A50,50,0,0,1,8020.85,77a51.5,51.5,0,0,1,16,15.41C8040,97.8,8030.44,107.51,8030.44,114.14Z" transform="translate(-66.35)"/><path class="cls-13" d="M7951.28,114.14c0,6.62,1.47,11.55-1.62,17s-8.43,6.7-13.94,9.9-8.9,11.13-15.41,11.13-12.59-3.85-18-6.94-5.55-10.17-8.74-15.67-14.68-8.79-14.68-15.41,6.09-13.25,9.17-18.57a39.5,39.5,0,0,1,13.1-14.52c5.35-3.08,12.48-9.13,19.26-9.13A50.08,50.08,0,0,1,7941.69,77a51.7,51.7,0,0,1,16.06,15.41C7960.84,97.8,7951.28,107.51,7951.28,114.14Z" transform="translate(-66.35)"/><path class="cls-13" d="M7955.52,69.34c-5.35.38-9.4,1.81-13.91-.39s-5.89-6.47-8.82-10.74-9.51-6.63-9.9-12a30.62,30.62,0,0,1,4.62-14.95c2.28-4.66,7.94-5.09,12.25-8s6.32-12.45,11.56-12.83,11.09,4.23,15.6,6.43a32.17,32.17,0,0,1,12.52,9.82c2.81,4.16,8.09,9.6,8.48,15a40.5,40.5,0,0,1-2.82,17.72,41.34,41.34,0,0,1-11.63,13.75C7969.31,76,7960.87,68.84,7955.52,69.34Z" transform="translate(-66.35)"/><path class="cls-13" d="M7867.88,110.86c.74,6.59,2.7,11.56.2,17.07s-7.71,7.7-12.79,11.32-7.71,12.06-14.22,12.75-12.94-2.5-18.6-5-6.63-9.48-10.36-14.64-15.41-7.17-16.3-13.72,4.66-13.82,7.17-19.49a39.37,39.37,0,0,1,11.55-15.79c5-3.66,11.56-10.44,18-11.13a50.56,50.56,0,0,1,21.92,2.62,51.4,51.4,0,0,1,17.49,13.75C7875.64,93.57,7867.38,104.28,7867.88,110.86Z" transform="translate(-66.35)"/><path class="cls-13" d="M7784.83,117.57c.74,6.58,2.7,11.55.2,17.1s-7.71,7.7-12.79,11.32-7.71,12-14.22,12.75-12.94-2.5-18.6-5-6.63-9.52-10.37-14.64-15.4-7.17-16.25-13.75,4.62-13.83,7.13-19.46a39.33,39.33,0,0,1,11.55-15.83c5-3.62,11.56-10.4,18-11.09a49.37,49.37,0,0,1,21.92,2.62A50.81,50.81,0,0,1,7789,95.34C7792.58,100.15,7784.14,111,7784.83,117.57Z" transform="translate(-66.35)"/><path class="cls-13" d="M7487.57,58.82c.58,5.24,2.15,9.13,0,13.64s-6.09,6-10.21,9-6.09,9.63-11.33,10.17a29.62,29.62,0,0,1-14.83-3.85c-4.66-2.08-5.27-7.7-8.28-11.56s-12.4-5.74-13-11,3.85-11,5.7-15.4a31.45,31.45,0,0,1,9.13-12.6c3.85-2.93,9.13-8.32,14.37-8.9a39.55,39.55,0,0,1,17.52,2.15,41,41,0,0,1,14.06,10.94C7493.73,45,7487,53.58,7487.57,58.82Z" transform="translate(-66.35)"/><path class="cls-13" d="M7589.46,50.08c.53,5.24,2.11,9.13,0,13.63s-6.13,6-10.25,9-6.09,9.59-11.33,10.17A30.2,30.2,0,0,1,7553.05,79c-4.66-2.08-5.27-7.7-8.28-11.55s-12.25-5.86-12.83-11.29,3.86-11,5.7-15.41a31.48,31.48,0,0,1,9.17-12.63c3.85-2.89,9.09-8.28,14.33-8.86a39.89,39.89,0,0,1,17.34,2,41.34,41.34,0,0,1,14.06,11C7595.64,36.21,7588.88,44.76,7589.46,50.08Z" transform="translate(-66.35)"/><path class="cls-13" d="M7523.47,55.7a13,13,0,0,1,0,6.94c-1,2.34-3.12,3.08-5.2,4.58s-3.12,4.89-5.78,5.2a15.16,15.16,0,0,1-7.7-2c-2.35-1-2.7-3.85-4.24-5.93s-6.05-2.82-6.36-5.59,1.89-5.62,2.89-7.7a16.32,16.32,0,0,1,4.66-6.44c2-1.46,4.66-4.23,7.32-4.5a20.1,20.1,0,0,1,8.9,1,21.57,21.57,0,0,1,7.17,5.58C7526.64,48.69,7523.16,53,7523.47,55.7Z" transform="translate(-66.35)"/><path class="cls-13" d="M7388.84,131.51a16.85,16.85,0,0,1,0,9.13c-1.39,3.12-4.12,4.08-6.9,6.09s-3.77,6.47-7.62,6.85a20.52,20.52,0,0,1-10-2.69c-3.12-1.39-3.55-5.09-5.55-7.71s-8.36-3.85-8.74-7.36,2.5-7.43,3.85-10.43a21.18,21.18,0,0,1,6.12-8.48c2.7-2,6.17-5.62,9.67-6a26.37,26.37,0,0,1,11.75,1.39,27.67,27.67,0,0,1,9.59,7.08C7393,122.23,7388.45,128,7388.84,131.51Z" transform="translate(-66.35)"/><path class="cls-13" d="M7420.31,74.35c.54,4.81,2,8.35,0,12.44s-5.43,5.66-9.17,8.24-5.58,9-10.36,9.28a27.51,27.51,0,0,1-13.52-3.62c-4.24-1.88-4.85-6.93-7.71-10.67s-11.32-5.2-11.82-10,3.39-10.06,5.2-14.18a28.61,28.61,0,0,1,8.36-11.55c3.62-2.66,8.32-7.71,13.1-8.13a36.6,36.6,0,0,1,15.94,1.92,37.41,37.41,0,0,1,12.83,10C7425.93,61.63,7419.81,69.57,7420.31,74.35Z" transform="translate(-66.35)"/><path class="cls-13" d="M7662.11,45.11c.57,5.24,2.15,9.13,0,13.63s-6.13,6-10.21,9-6.13,9.59-11.37,10.17a30.31,30.31,0,0,1-14.83-3.85c-4.62-2.08-5.27-7.71-8.28-11.56s-12.4-5.74-12.94-11,3.85-11,5.7-15.41a31.41,31.41,0,0,1,9.28-13c3.86-2.89,9.13-8.28,14.37-8.86a39.57,39.57,0,0,1,17.49,2.12,41.34,41.34,0,0,1,14.06,11C7668.27,31.32,7661.53,39.87,7662.11,45.11Z" transform="translate(-66.35)"/><path class="cls-13" d="M7926.9,403.47c.54,5.24,2.12,9.13,0,13.63s-6.13,6-10.21,9-6.12,9.59-11.56,10.17a30.31,30.31,0,0,1-14.83-3.85c-4.66-2.08-5.27-7.71-8.28-11.56s-12.4-5.7-13-10.94,3.85-11,5.7-15.41a31.33,31.33,0,0,1,9.52-13.17c3.85-2.89,9.09-8.28,14.36-8.86a39.66,39.66,0,0,1,17.45,2.08,41.34,41.34,0,0,1,14.06,11C7933.06,389.68,7926.32,398.23,7926.9,403.47Z" transform="translate(-66.35)"/><path class="cls-13" d="M7456.83,130c.58,5.24,2.15,9.13,0,13.64s-6.13,6-10.21,9-6.13,9.59-11.36,10.17a30.31,30.31,0,0,1-14.83-3.85c-4.63-2.08-5.28-7.71-8.29-11.56s-12.4-5.7-13-10.94,3.85-11,5.74-15.41a30.82,30.82,0,0,1,9.28-13.17c3.86-2.89,9.13-8.28,14.37-8.86A40.15,40.15,0,0,1,7446,101.1a41.12,41.12,0,0,1,14,11C7462.91,116.18,7456.25,124.73,7456.83,130Z" transform="translate(-66.35)"/><path class="cls-13" d="M7732.87,53.35c.54,4.89,2,8.51,0,12.71s-5.7,5.63-9.55,8.44-5.71,8.94-10.6,9.48a27.91,27.91,0,0,1-13.83-3.86c-4.16-1.77-4.85-6.93-7.55-10.78s-11.55-5.32-12.09-10.21,3.46-10.29,5.31-14.48a29.6,29.6,0,0,1,8.52-11.79c3.85-2.7,8.51-7.71,13.4-8.28a37.49,37.49,0,0,1,16.3,2,38.63,38.63,0,0,1,13.13,10.25C7738.64,40.49,7732.33,48.46,7732.87,53.35Z" transform="translate(-66.35)"/><path class="cls-13" d="M7817.31,53.35c.54,4.89,2,8.51,0,12.71s-5.7,5.63-9.56,8.44-5.7,8.94-10.59,9.48a27.91,27.91,0,0,1-13.83-3.86c-4.31-1.88-4.93-7.05-7.7-10.9s-11.56-5.31-12.1-10.21,3.47-10.28,5.32-14.48a29.64,29.64,0,0,1,8.51-11.79c3.85-2.69,8.51-7.7,13.41-8.28a37.77,37.77,0,0,1,16.33,2,38.5,38.5,0,0,1,13.1,10.24C7822.93,40.49,7816.64,48.46,7817.31,53.35Z" transform="translate(-66.35)"/><path class="cls-13" d="M7900.51,50.08c.5,4.89,2,8.55,0,12.75s-5.7,5.62-9.51,8.4-5.7,9-10.6,9.47a28,28,0,0,1-13.83-3.85c-4.31-1.93-4.93-7.09-7.7-10.9s-11.56-5.32-12.13-10.21,3.46-10.29,5.35-14.48a29,29,0,0,1,8.55-11.79c3.86-2.7,8.52-7.71,13.41-8.28a37,37,0,0,1,16.49,1.92,37.76,37.76,0,0,1,13.1,10.25C7906.25,37.21,7900,45.15,7900.51,50.08Z" transform="translate(-66.35)"/><path class="cls-13" d="M7706.25,118.26c1.5,6.43,3.85,11,2.23,17s-6.74,8.4-11.32,12.75-6.16,12.86-12.6,14.37-13.13-.89-19.26-2.7-7.7-8.63-12.05-13.29-16.3-5.24-17.8-11.56,2.93-14.29,4.74-20.18a39.05,39.05,0,0,1,9.45-17.12c4.51-4.23,10.1-11.74,16.53-13.25a50.12,50.12,0,0,1,22.07,0,50.9,50.9,0,0,1,19.26,11.56C7711.84,100.15,7704.75,111.71,7706.25,118.26Z" transform="translate(-66.35)"/><path class="cls-13" d="M7624.7,114.14c1.47,6.47,3.85,11,2.24,17s-6.71,8.43-11.33,12.79-6.16,12.86-12.6,14.36-13.17-.92-19.26-2.73-7.7-8.63-12-13.25-16.3-5.24-17.8-11.56,2.93-14.29,4.74-20.18a39.21,39.21,0,0,1,9.47-17.11c4.51-4.2,10.1-11.55,16.53-13.21a49.53,49.53,0,0,1,22.07,0A51.44,51.44,0,0,1,7626,91.81C7630.29,96.07,7623.2,107.86,7624.7,114.14Z" transform="translate(-66.35)"/><path class="cls-13" d="M7543.81,118.26c1.5,6.43,3.85,11,2.23,17s-6.66,8.4-11.32,12.75-6.17,12.86-12.6,14.37-13.14-.89-19-2.7-7.7-8.63-12.09-13.29-16.53-5.24-18-11.52,3-14.29,4.77-20.18a39.43,39.43,0,0,1,9.44-17.07c4.51-4.23,10.09-11.75,16.53-13.25a50.12,50.12,0,0,1,22.07,0,51.31,51.31,0,0,1,19.26,11.56C7549.2,100.15,7542.11,111.71,7543.81,118.26Z" transform="translate(-66.35)"/><path class="cls-13" d="M7502.51,201.35c0,6.62,1.47,11.56-1.61,17s-8.44,6.7-13.95,9.9-8.9,11.13-15.41,11.13-12.59-3.85-17.95-6.93-5.55-10.17-8.74-15.68-14.68-8.79-14.68-15.41,6.09-13.25,9.21-18.61a39.11,39.11,0,0,1,13.06-14.48c5.35-3.08,12.48-9.13,19.26-9.13a49.88,49.88,0,0,1,21.49,5,51.7,51.7,0,0,1,16.06,15.41C7512.07,184.9,7502.51,194.72,7502.51,201.35Z" transform="translate(-66.35)"/><path class="cls-13" d="M7663.22,196.73c0,6.62,1.47,11.55-1.65,17s-8.4,6.71-13.91,9.86-8.94,11.18-15.41,11.18-12.59-3.86-17.95-7-5.74-10.17-8.86-15.68-14.71-8.78-14.71-15.4,6.12-13.22,9.2-18.57a39.22,39.22,0,0,1,13.22-14.48c5.35-3.12,12.48-9.13,19.26-9.13a49.28,49.28,0,0,1,21.49,5,51.12,51.12,0,0,1,16.06,15.4C7672.7,180.39,7663.22,190.14,7663.22,196.73Z" transform="translate(-66.35)"/><path class="cls-13" d="M8039.8,251.7c0-6.59-1.42-11.56,1.66-17s8.44-6.7,13.94-9.9,8.9-11.13,15.41-11.13,12.6,3.85,17.91,6.93,5.59,10.17,8.79,15.68,14.67,8.82,14.67,15.41-6.12,13.25-9.2,18.6a39.39,39.39,0,0,1-13.06,14.49c-5.36,3.08-12.52,9.12-19.26,9.12a50,50,0,0,1-21.26-5,51.5,51.5,0,0,1-16-15.41C8030.29,268.07,8039.8,258.32,8039.8,251.7Z" transform="translate(-66.35)"/><path class="cls-13" d="M7879.21,256.32c0-6.63-1.46-11.56,1.62-17s8.43-6.7,13.94-9.86,8.9-11.17,15.41-11.17,12.6,3.85,17.95,7,5.55,10.17,8.75,15.68,14.67,8.78,14.67,15.41-6,13.33-9.05,18.57a39.39,39.39,0,0,1-13.1,14.48c-5.35,3.12-12.48,9.17-19.26,9.17a49.84,49.84,0,0,1-21.49-5,51.73,51.73,0,0,1-16.07-15.41C7869.64,272.65,7879.21,262.91,7879.21,256.32Z" transform="translate(-66.35)"/><path class="cls-13" d="M7717.69,267.3c-1.58-6.44-4.16-11-2.39-16.91s6.63-8.52,11.25-12.91,6.05-12.9,12.48-14.44,13.18.81,19.07,2.58,7.7,8.59,12.17,13.21,16.34,5.08,17.88,11.56-2.85,14.33-4.59,20.22a39.31,39.31,0,0,1-9.36,17.18c-4.47,4.24-10,11.79-16.45,13.33a50.12,50.12,0,0,1-22.07,0,51.15,51.15,0,0,1-19.26-11.56C7712.22,285.4,7719.23,273.73,7717.69,267.3Z" transform="translate(-66.35)"/><path class="cls-13" d="M7638.26,263.21c0-6.62-1.42-11.55,1.66-17s8.43-6.71,13.94-9.9,8.9-11.14,15.41-11.14,12.64,3.86,17.95,6.94,5.59,10.17,8.75,15.68,14.71,8.78,14.71,15.4-6.05,13.25-8.94,18.61a39.45,39.45,0,0,1-13.1,14.5c-5.32,3.08-12.48,9.13-19.26,9.13a50,50,0,0,1-21.58-5,51,51,0,0,1-16-15.41C7628.55,279.55,7638.26,269.84,7638.26,263.21Z" transform="translate(-66.35)"/><path class="cls-13" d="M7614.64,245.26c4.81,4.55,9.47,6.94,11.25,12.87s-.93,10.71-2.39,16.91,2,14.14-2.58,18.95-11.56,6.51-17.38,8.25-11.21-2.93-17.37-4.4-16.49,4.66-21.3,0-5.43-13.52-7.2-19.26a39.36,39.36,0,0,1-1.55-19.26c1.43-6,1.93-15.41,6.48-20.14A49.53,49.53,0,0,1,7581,226.93a51.35,51.35,0,0,1,22.3-1C7609.29,227.27,7609.83,240.72,7614.64,245.26Z" transform="translate(-66.35)"/><path class="cls-13" d="M7477.64,267.84c0-6.63-1.43-11.56,1.66-17s8.43-6.7,13.94-9.86,8.9-11.17,15.41-11.17,12.59,3.85,18,7,5.66,10.17,8.86,15.68,14.68,8.78,14.68,15.41-6.09,13.36-9.21,18.56A38.9,38.9,0,0,1,7527.87,301c-5.36,3.05-12.53,9.05-19.23,9.05a49.73,49.73,0,0,1-21.53-5,51.06,51.06,0,0,1-16-15.41C7468.11,284.17,7477.64,274.42,7477.64,267.84Z" transform="translate(-66.35)"/><path class="cls-13" d="M7397.43,270.11c0-6.59-1.47-11.56,1.62-17s8.36-6.59,13.79-9.9,8.9-11.13,15.41-11.13,12.59,3.85,18,7,5.74,10.17,9,15.68,14.68,8.78,14.68,15.41-6.17,13.21-9.29,18.76a39.15,39.15,0,0,1-13.09,14.29c-5.36,3.08-12.49,9.13-19.26,9.13a49.89,49.89,0,0,1-21.5-5,51.75,51.75,0,0,1-16.1-15.35C7387.8,286.48,7397.43,276.73,7397.43,270.11Z" transform="translate(-66.35)"/><path class="cls-13" d="M7510.76,341.22c0-6.63-1.47-11.56,1.61-17s8.33-6.66,14-9.86,8.9-11.13,15.41-11.13,12.59,3.85,17.95,6.93,5.55,10.17,8.74,15.68,14.68,8.78,14.68,15.41-6,13.17-9,18.57a39.67,39.67,0,0,1-13.1,14.52c-5.35,3.08-12.48,9.13-19.26,9.13a49.89,49.89,0,0,1-21.5-5,51.7,51.7,0,0,1-16.06-15.41C7501.2,357.55,7510.76,347.84,7510.76,341.22Z" transform="translate(-66.35)"/><path class="cls-13" d="M7597.74,337.75c-.73-6.55-2.7-11.55,0-17.06s7.7-7.71,12.79-11.33,7.7-12,14.25-12.75,12.94,2.51,18.57,5,6.62,9.51,10.4,14.64,15.4,7.16,16.25,13.75-4.66,13.79-7.16,19.26a39.32,39.32,0,0,1-11.56,15.79c-5,3.85-11.56,10.44-18,11.14a49.7,49.7,0,0,1-22-2.55,51,51,0,0,1-17.64-13.74C7590,355.05,7598.39,344.34,7597.74,337.75Z" transform="translate(-66.35)"/><path class="cls-13" d="M7677.17,337.75c-.7-6.55-2.66-11.55,0-17.06s7.7-7.71,12.79-11.33,7.7-12,14.21-12.75,12.94,2.51,18.61,5,6.62,9.51,10.36,14.64,15.41,7.16,16.25,13.75-4.62,13.79-7.12,19.26a39.07,39.07,0,0,1-11.56,15.79c-5,3.85-11.55,10.44-18,11.14a49.54,49.54,0,0,1-22-2.55,51.54,51.54,0,0,1-17.65-13.75C7669.46,355.05,7677.9,344.34,7677.17,337.75Z" transform="translate(-66.35)"/><path class="cls-13" d="M7798.89,404.2c-.57-5.24-2.15-9.13,0-13.64s6.13-6,10.21-9,6.13-9.63,11.56-10.17a29.88,29.88,0,0,1,14.83,3.85c4.62,2.08,5.28,7.71,8.28,11.56s12.4,5.74,12.94,11-3.85,11-5.7,15.41a31.17,31.17,0,0,1-9.13,12.59c-3.85,2.93-9.13,8.32-14.37,8.9a39.5,39.5,0,0,1-17.48-2.12A41,41,0,0,1,7796,421.64C7792.73,418,7799.47,409.44,7798.89,404.2Z" transform="translate(-66.35)"/><path class="cls-13" d="M7729.17,402c-.54-4.89-2-8.51,0-12.71s5.7-5.62,9.55-8.43,5.7-8.94,10.6-9.48a27.6,27.6,0,0,1,13.83,3.85c4.31,1.89,4.93,7,7.7,10.87s11.56,5.35,12.1,10.24-3.47,10.29-5.32,14.49a29.51,29.51,0,0,1-8.51,11.55c-3.86,2.74-8.52,7.71-13.41,8.28a37,37,0,0,1-16.29-1.92,38.57,38.57,0,0,1-13.14-10.25C7723.43,414.87,7729.71,406.9,7729.17,402Z" transform="translate(-66.35)"/><path class="cls-13" d="M7644.85,402c-.54-4.89-2-8.51,0-12.71s5.7-5.62,9.55-8.43,5.66-8.94,10.59-9.48a27.6,27.6,0,0,1,13.83,3.85c4.32,1.89,4.9,7,7.71,10.87s11.55,5.35,12.09,10.24-3.46,10.29-5.31,14.49a29.37,29.37,0,0,1-8.52,11.55c-3.85,2.74-8.51,7.71-13.4,8.28a37.14,37.14,0,0,1-16.33-1.92,38.53,38.53,0,0,1-13.1-10.25C7639.11,414.87,7645.39,406.9,7644.85,402Z" transform="translate(-66.35)"/><path class="cls-13" d="M7561.53,405.28c-.54-4.89-2-8.51,0-12.71s5.74-5.63,9.55-8.4,5.7-9,10.59-9.52a28.4,28.4,0,0,1,13.83,3.86c4.32,1.92,4.93,7.05,7.71,10.9s11.55,5.31,12.13,10.21-3.47,10.28-5.35,14.48a29.17,29.17,0,0,1-8.52,11.79c-3.85,2.69-8.51,7.7-13.4,8.28A30.89,30.89,0,0,1,7558.64,422C7555.79,418.14,7562.07,410.17,7561.53,405.28Z" transform="translate(-66.35)"/><path class="cls-13" d="M7436,337.48c-.54-4.89-2-8.51,0-12.71s5.7-5.66,9.51-8.44,5.71-9,10.6-9.47a27.86,27.86,0,0,1,13.83,3.85c4.35,1.93,4.93,7.09,7.7,10.9s11.56,5.32,12.1,10.21-3.47,10.28-5.32,14.48a29.48,29.48,0,0,1-8.51,11.79c-3.86,2.7-8.52,7.7-13.41,8.28a37.29,37.29,0,0,1-16.33-2,38.41,38.41,0,0,1-13.1-10.21C7430.09,350.31,7436.37,342.37,7436,337.48Z" transform="translate(-66.35)"/><path class="cls-13" d="M7356.79,344.18c-.54-4.89-2-8.51,0-12.71s5.7-5.62,9.55-8.43,5.7-8.94,10.6-9.48a27.59,27.59,0,0,1,13.82,3.85c4.32,1.89,4.93,7,7.71,10.87s11.55,5.35,12.09,10.24-3.42,10.29-5.31,14.49a29.37,29.37,0,0,1-8.52,11.55c-3.85,2.74-8.51,7.71-13.4,8.28a36.94,36.94,0,0,1-16.29-1.92,38.57,38.57,0,0,1-13.14-10.25C7351.2,357.05,7357.33,349.08,7356.79,344.18Z" transform="translate(-66.35)"/><path class="cls-13" d="M7396.58,398.19c-.54-4.89-2-8.51,0-12.71s5.7-5.63,9.52-8.44,5.7-8.93,10.59-9.47a27.86,27.86,0,0,1,13.83,3.85c4.35,1.92,4.93,7.09,7.7,10.9s11.56,5.35,12.1,10.25-3.47,10.28-5.32,14.48a29,29,0,0,1-8.55,11.75c-3.85,2.73-8.51,7.7-13.41,8.28a36.55,36.55,0,0,1-16.29-2,37.86,37.86,0,0,1-13.1-10.21C7390.8,411.06,7397.08,403.08,7396.58,398.19Z" transform="translate(-66.35)"/><path class="cls-13" d="M7461.72,409.94c-.62-5.86-2.39-10.21,0-15.41s6.82-6.74,11.56-10,6.81-10.71,12.67-11.56a33.41,33.41,0,0,1,16.52,4.47c5.17,2.27,5.9,8.44,9.25,13s13.83,6.36,14.45,12.21-4.13,12.29-6.36,17.3a34.68,34.68,0,0,1-10.67,14.44c-4.43,3.28-10.17,9.29-16,9.9a44.1,44.1,0,0,1-19.5-2.29A45.52,45.52,0,0,1,7458,429.75C7454.86,425.27,7462.34,415.76,7461.72,409.94Z" transform="translate(-66.35)"/><path class="cls-13" d="M7328.09,273.11c-.54-4.89-2-8.51,0-12.71s5.7-5.62,9.55-8.43,5.55-9,10.44-9.29a28.07,28.07,0,0,1,13.83,3.85c4.32,1.93,4.93,7.09,7.71,10.91s11.55,5.31,12.09,10.2-3.47,10.29-5.31,14.49a29.4,29.4,0,0,1-8.52,11.78c-3.85,2.7-8.51,7.71-13.4,8.29a37,37,0,0,1-16.3-2,38.45,38.45,0,0,1-13.13-10.55C7322.35,285.94,7328.64,278,7328.09,273.11Z" transform="translate(-66.35)"/><path class="cls-13" d="M7755.64,337.1c-1.5-6.44-3.85-11-2.23-17s6.7-8.44,11.32-12.79,6.17-12.87,12.6-14.37,13.14.92,19.26,2.74,7.7,8.62,12.06,13.28,16.29,5.24,17.79,11.56-3,14.29-4.73,20.19a39.16,39.16,0,0,1-9.48,17.06c-4.51,4.24-10.09,11.56-16.53,13.21a49.53,49.53,0,0,1-22.07,0,51,51,0,0,1-19.26-11.55C7750.2,355.16,7757.29,343.53,7755.64,337.1Z" transform="translate(-66.35)"/><path class="cls-13" d="M7837.34,341.18c-1.47-6.43-3.85-11-2.24-16.91s6.71-8.44,11.33-12.79,6.16-12.87,12.59-14.37,13.18.93,19.07,2.7,7.71,8.67,12.06,13.29,16.29,5.24,17.8,11.55-2.93,14.3-4.74,20.19a39.24,39.24,0,0,1-9.48,17.26c-4.5,4.2-10.09,11.55-16.52,13.21a50.16,50.16,0,0,1-22.08,0,52,52,0,0,1-19.26-11.56C7831.75,359.28,7838.84,347.65,7837.34,341.18Z" transform="translate(-66.35)"/><path class="cls-13" d="M7918.42,337.1c-1.5-6.44-4-11-2.23-17s6.66-8.44,11.32-12.79,6.17-12.87,12.6-14.37,13.14.92,19,2.74,7.7,8.62,12.1,13.28,16.29,5.24,17.79,11.56-3,14.29-4.77,20.19a39.5,39.5,0,0,1-9.44,17.06c-4.51,4.24-10.09,11.56-16.53,13.21a49.53,49.53,0,0,1-22.07,0,50.75,50.75,0,0,1-19.26-11.55C7912.84,355.16,7919.93,343.53,7918.42,337.1Z" transform="translate(-66.35)"/><path class="cls-13" d="M7959.49,254c0-6.63-1.43-11.56,1.65-17s8.44-6.7,14.1-9.75,8.9-11.13,15.41-11.13,12.6,3.85,18,6.93,5.55,10.17,8.75,15.68,14.67,8.79,14.67,15.41-6.08,13.25-9.2,18.57a39.3,39.3,0,0,1-12.91,14.37c-5.35,3.08-12.48,9.13-19.26,9.13a49.84,49.84,0,0,1-21.49-5,51.62,51.62,0,0,1-16.07-15.41C7950,270.34,7959.49,260.63,7959.49,254Z" transform="translate(-66.35)"/><path class="cls-13" d="M7999.28,331.05c0-6.63-1.43-11.56,1.66-17s8.43-6.66,13.94-9.86,8.9-11.13,15.41-11.13,12.63,3.85,18,6.93,5.58,10.17,8.74,15.68,14.72,8.78,14.72,15.41-6.13,13.25-9.21,18.57a39.81,39.81,0,0,1-13.09,14.52c-5.32,3.08-12.49,9.13-19.27,9.13a50.13,50.13,0,0,1-21.49-5,51,51,0,0,1-16-15.41C7989.73,347.38,7999.28,337.67,7999.28,331.05Z" transform="translate(-66.35)"/><path class="cls-13" d="M7948.64,406.78c0-6.62-1.43-11.56,1.65-17s8.44-6.66,13.95-9.86,8.9-11.13,15.41-11.13,12.59,3.85,18,6.93,5.54,10.17,8.74,15.68,14.68,8.79,14.68,15.41-6.09,13.25-9.21,18.57a39.23,39.23,0,0,1-13.06,14.52c-5.35,3.08-12.48,9.13-19.26,9.13a49.84,49.84,0,0,1-21.49-5,51.73,51.73,0,0,1-16.07-15.41C7939.07,423.11,7948.64,413.41,7948.64,406.78Z" transform="translate(-66.35)"/><path class="cls-13" d="M7796.24,257.28c0-6.59-1.43-11.55,1.65-17s8.44-6.7,13.95-9.9,8.89-11.13,15.4-11.13,12.6,3.85,17.92,7,5.58,10.13,8.78,15.64,14.68,8.82,14.68,15.41-6.13,13.25-9.21,18.61a39.52,39.52,0,0,1-13.06,14.48c-5.35,3.08-12.52,9.13-19.26,9.13a50.09,50.09,0,0,1-21.34-5,51.5,51.5,0,0,1-16-15.41C7786.72,273.5,7796.24,263.91,7796.24,257.28Z" transform="translate(-66.35)"/><path class="cls-1" d="M6850.57,71.12l6.92,28c-42-.56-89.27-1.13-137.21-1.23h0a2.93,2.93,0,0,0-2.87-2.92H6700.1a2.93,2.93,0,0,0-2.87,2.92h-41a3,3,0,0,0-2.92-2.92h-17.15a3,3,0,0,0-2.92,2.92h0a1.09,1.09,0,0,0,0,.36c-121.49,1.38-228.63,7.12-242.92,24.17a88.07,88.07,0,0,0-10.7,16.8h0q-2.25,4.46-4.15,9.22l-.26.62c-1.17,3-2.3,6.09-3.33,9.27a6.31,6.31,0,0,0,0,.87c-1,3.12-1.94,6.35-2.81,9.57v.72c-.87,3.43-1.69,6.92-2.41,10.24h0a331.61,331.61,0,0,0-5.63,43.84h0a42.6,42.6,0,0,1-.41,7.23v57.66a61.19,61.19,0,0,0,.25,6.77v3a42.55,42.55,0,0,0,.41,7.22h0a331.63,331.63,0,0,0,5.64,43.84h0c.71,3.48,1.53,7,2.4,10.24v.72c.87,3.23,1.8,6.45,2.82,9.58a6.31,6.31,0,0,0,0,.87c1,3.17,2.15,6.24,3.33,9.27l.26.61a98.7,98.7,0,0,0,14.59,26.63C6404.64,424,6511.8,430,6633.11,431.37a2.16,2.16,0,0,0,0,.36h0a3,3,0,0,0,2.92,2.91h17.26a3,3,0,0,0,2.92-2.91h41a2.9,2.9,0,0,0,2.87,2.91h17.31a2.91,2.91,0,0,0,2.87-2.91h0c47.94,0,95.21-.67,137.21-1.23l-6.92,28a4.51,4.51,0,0,0,3.36,5.42,4.34,4.34,0,0,0,1.76.06,22.11,22.11,0,0,0,18.65-16.7,16,16,0,0,0-3.54-16.95c46.4-.61,85.43-1.23,110.17-1.23,81.94,0,115.95-4.61,137.25-25.61l1.85-1.94,1.74-2.2h0a59.18,59.18,0,0,0,4.61-7.28v-.25c.72-1.23,1.38-2.56,2.05-3.9v-.46c.71-1.43,1.38-2.92,2.05-4.45h0c2.1-4.82,4.09-10.24,5.94-15.88v-.41c1.48-4.51,2.86-9.27,4.2-14.13a4.26,4.26,0,0,0,.87.3h0a3.12,3.12,0,0,0,3.79-2.2,391.39,391.39,0,0,0,12.95-86,391.39,391.39,0,0,0-12.95-86,3.12,3.12,0,0,0-3.79-2.2h0l-.87.3c-.77-2.76-1.54-5.53-2.36-8.24h0c-.56-1.85-1.13-3.69-1.74-5.53v-.62c-.51-1.69-1.08-3.33-1.64-5.12v-.56c-1.28-3.59-2.61-7-3.94-10.25h0c-.62-1.48-1.28-2.86-1.9-4.2l-.46-.92c-.51-1.07-1.08-2.15-1.64-3.22a8.4,8.4,0,0,0-.51-.93c-.56-1.07-1.18-2.1-1.79-3.12l-.31-.51c-.77-1.23-1.54-2.36-2.25-3.38h0a28.61,28.61,0,0,0-1.8-2.31c-.66-.76-1.28-1.43-1.94-2.1h0c-21.31-20.79-51.22-25.6-137.26-25.6-24.74,0-63.76-.62-110.16-1.23a16,16,0,0,0,3.53-17,22.07,22.07,0,0,0-18.74-16.38,4.5,4.5,0,0,0-5.21,3.68,4.36,4.36,0,0,0,.08,1.9Z" transform="translate(-66.35)"/><path class="cls-14" d="M7027.06,383.07c81.95,0,115.95-4.61,137.26-25.61s36.31-103.76,36.31-138.89-14.95-117.8-36.31-138.85-51.22-25.61-137.26-25.61c-118.2.26-560.76-13.72-590.61,22.13s-30.73,106.32-30.73,142.38,1.18,106.58,30.73,142.43S6908.86,383.07,7027.06,383.07Z" transform="translate(-66.35)"/><path class="cls-15" d="M7008.42,368.78c79.54,0,108.93-4.2,128.45-23.2s27.45-94.85,27.45-127-8-107.86-27.45-126.91-40.1-23.2-128.45-23.2a398.9,398.9,0,0,0-73.29,7.27C6912,86,6873.67,91.36,6836.39,95.15c-6.05-4.35-18-6.91-30.73-6.91-17.36-5.74-54-1.44-76.83,0h-6.4s-78.05-3.44-112.67,0a102.24,102.24,0,0,0-22.48,4.19c-10.55,1.18-54.75-13.11-62.85-11.62-16.33,3-53.57,2.82-57.36,7.43-27.19,32.76-28.27,97.34-28.27,130.17s1.08,97.31,28.27,130.19c3.79,4.61,41,4.41,57.36,7.38,8.1,1.48,52.3-12.75,62.85-11.58a96,96,0,0,0,22.48,4.15c34.42,3.43,112.67,0,112.67,0h6.4c22.59,1.49,59.21,5.74,76.83,0,12.7,0,24.68-2.51,30.73-6.86,37.28,3.79,75.59,9.22,98.74,19.41A400,400,0,0,0,7008.42,368.78Z" transform="translate(-66.35)"/><path class="cls-16" d="M6729.09,88.48h80.36l117.79-21.82c-42.25-4.4-124.3-4.71-198.15-3.89Z" transform="translate(-66.35)"/><path class="cls-16" d="M6722.69,62.87C6645.46,63.79,6578.8,66,6578.8,66l31.4,22.48h112.67Z" transform="translate(-66.35)"/><path class="cls-16" d="M6978.61,218.62s1-82-43.48-142.64l-98.74,19.41s28.52,33.35,28.52,123.23-28.52,123.48-28.52,123.48l98.74,19.41C6979.64,300.67,6978.61,218.62,6978.61,218.62Z" transform="translate(-66.35)"/><path class="cls-17" d="M6729.09,348.76h80.36l117.79,21.87c-42.25,4.35-124.3,4.71-198.15,3.84Z" transform="translate(-66.35)"/><path class="cls-17" d="M6722.69,374.42c-77.23-1-143.87-3.13-143.87-3.13l31.4-22.53h112.67Z" transform="translate(-66.35)"/><path class="cls-16" d="M6587.74,344.61c-8.35-30.73-8.35-221.35,0-251.93,0,0-38.06-14.39-62.84-11.63-12.65,20.49-28.69,64.54-28.69,137.57s16,116.87,28.69,137.56C6549.68,359,6587.74,344.61,6587.74,344.61Z" transform="translate(-66.35)"/><path class="cls-15" d="M6905.07,59l-8.4-34a4.56,4.56,0,0,1,5.12-5.48,22,22,0,0,1,18.64,16.7C6926,55.6,6905.07,59,6905.07,59Z" transform="translate(-66.35)"/><path class="cls-15" d="M6905.07,378.26l-8.4,34.05a4.56,4.56,0,0,0,3.48,5.43h0a4.31,4.31,0,0,0,1.64.05,22.06,22.06,0,0,0,18.64-16.69C6926,381.69,6905.07,378.26,6905.07,378.26Z" transform="translate(-66.35)"/><path class="cls-17" d="M6836.39,342.1l98.74,19.41c44.51-60.64,43.48-142.69,43.48-142.69h-113.7C6864.91,308.55,6836.39,342.1,6836.39,342.1Z" transform="translate(-66.35)"/><path class="cls-17" d="M6587.74,344.61a18.93,18.93,0,0,0-.77-3.33v-1a4.45,4.45,0,0,0-.36-2.1c-3.33-21-5.12-70.21-5.12-119.53h-85.28c0,73.08,16,116.87,28.69,137.56C6549.68,359,6587.74,344.61,6587.74,344.61Z" transform="translate(-66.35)"/><path class="cls-16" d="M6415.29,252.83a435.91,435.91,0,0,1,0-68.37c.26-3.18-3.43-6.2-8.45-6.92-1.12,15.62-1.12,30-1.12,41.08s0,25.61,1.12,41C6411.86,259,6415.55,256,6415.29,252.83Z" transform="translate(-66.35)"/><path class="cls-18" d="M6415.55,135.5h0a6.46,6.46,0,0,0,7.63-4.72q3.64-14.9,8.5-29.6a6.18,6.18,0,0,0-3.86-7.84h-.13a7.29,7.29,0,0,0-1.79-.25,164.05,164.05,0,0,0-13.42,41A6.82,6.82,0,0,0,6415.55,135.5Z" transform="translate(-66.35)"/><path class="cls-18" d="M6427.8,344a6.25,6.25,0,0,0,4-7.88h0a267.39,267.39,0,0,1-8.5-29.61,6.41,6.41,0,0,0-7.38-4.71h0a6.78,6.78,0,0,0-3.07,1.74,163.11,163.11,0,0,0,13.42,41,5.38,5.38,0,0,0,1.79,0Z" transform="translate(-66.35)"/><path class="cls-16" d="M7182.09,297.29a8.14,8.14,0,0,0,6,9.57h0a3.12,3.12,0,0,0,3.79-2.2,390.78,390.78,0,0,0,13-86,390.78,390.78,0,0,0-13-86,3.18,3.18,0,0,0-3.79-2.26h0a8.15,8.15,0,0,0-6,9.58c5.63,25.61,11.32,52.39,11.32,78.62S7187.8,271.27,7182.09,297.29Z" transform="translate(-66.35)"/><path class="cls-14" d="M6761.46,277l21.05-117.28-39.44-26.12a5.12,5.12,0,0,0-7.13,1.18v0a5,5,0,0,0-1,3.15V246a7.1,7.1,0,0,0,2,5.12C6742.92,257.34,6761.05,276.9,6761.46,277Z" transform="translate(-66.35)"/><rect class="cls-19" x="6693.51" y="159.46" width="25.51" height="118.36" rx="4.05"/><rect class="cls-20" x="6700.73" y="175.9" width="11.16" height="85.43" rx="2.82"/><path class="cls-19" d="M7163.29,86l-2-5.12q7.71,19.31,15.36,38.72a5.53,5.53,0,0,0,7.17,3.07h0a3.06,3.06,0,0,0,.82-.56,133.87,133.87,0,0,0-16.7-38.26Z" transform="translate(-66.35)"/><path class="cls-21" d="M7161.3,81.26l2,5.12,5.13-1.95a38.89,38.89,0,0,0-3.85-4.45,40,40,0,0,0-3-2.72A5.43,5.43,0,0,0,7161.3,81.26Z" transform="translate(-66.35)"/><path class="cls-19" d="M7177.8,317.87q-8.66,19-17.41,37.9c.76-1.58,1.53-3.22,2.25-4.81l5.12,2.41a132.16,132.16,0,0,0,16.9-38.31A5.47,5.47,0,0,0,7177.8,317.87Z" transform="translate(-66.35)"/><path class="cls-21" d="M7167.9,353.37l-5.1-2.37c-.71,1.59-1.48,3.23-2.25,4.81a5.44,5.44,0,0,0,.31,5.12c1.23-1,2.45-2.1,3.58-3.22A38.06,38.06,0,0,0,7167.9,353.37Z" transform="translate(-66.35)"/><path class="cls-16" d="M6746.25,48.74h17.21a2.92,2.92,0,0,1,2.92,2.92h0a2.92,2.92,0,0,1-2.92,2.92h-17.21a2.92,2.92,0,0,1-2.92-2.92h0A2.92,2.92,0,0,1,6746.25,48.74Z" transform="translate(-66.35)"/><path class="cls-16" d="M6682,48.74h17.21a2.92,2.92,0,0,1,2.92,2.92h0a2.92,2.92,0,0,1-2.92,2.92H6682a2.92,2.92,0,0,1-2.92-2.92h0A2.92,2.92,0,0,1,6682,48.74Z" transform="translate(-66.35)"/><path class="cls-16" d="M6746.25,382.66h17.21a2.92,2.92,0,0,1,2.92,2.92h0a2.92,2.92,0,0,1-2.92,2.92h-17.21a2.92,2.92,0,0,1-2.92-2.92h0A2.92,2.92,0,0,1,6746.25,382.66Z" transform="translate(-66.35)"/><path class="cls-16" d="M6682,382.66h17.21a2.92,2.92,0,0,1,2.92,2.92h0a2.92,2.92,0,0,1-2.92,2.92H6682a2.92,2.92,0,0,1-2.92-2.92h0A2.92,2.92,0,0,1,6682,382.66Z" transform="translate(-66.35)"/><path class="cls-1" d="M5053.5,99.75l-396-8.38c-51.87,0-126.52,42.3-126.52,94V339.22c0,51.93,74.65,94,126.52,94l396-8.38L5047.55,449s19.91,4.87,23.91-24.45a83.81,83.81,0,0,1,12.77.65l71.45,3.3c46.47,4.33,106-8.17,139-41.17,28.35-28.34,32.46-72.43,32.46-115.7V252.94c0-43.27-4.38-87.36-32.46-115.7-33-33-92.55-43.87-139-39.54l-71.45,1.67c-4.22.38-8.49.6-12.77.65-4-29.32-23.91-24.45-23.91-24.45Z" transform="translate(-66.35)"/><path class="cls-22" d="M5103.86,55.67A172,172,0,0,0,5122,55l71.46-1.68c46.41-4.33,106,6.55,139,39.54,28.35,28.35,32.73,72.43,32.73,115.71V227.3c0,43.28-4.38,87.36-32.73,115.71-33,32.94-92.6,45.49-139,41.16l-71.46-3.3a147.11,147.11,0,0,0-18.18-.65l-408.51,8.66c-51.93,0-126.47-42.09-126.47-94V141c0-51.87,74.54-93.85,126.47-93.85Z" transform="translate(-66.35)"/><path class="cls-23" d="M5099.27,74.44q8.76.16,17.52-.54l69-1.52c44.9-3.79,102.46,5.84,134.32,35,27.42,25,31.64,64.05,31.64,102.29v16.55c0,38.24-4.22,77.19-31.64,102.29-31.86,29.16-89.42,40.19-134.32,36.41l-69-2.93a173.63,173.63,0,0,0-17.52-.59l-394.88,7.68c-50.15,0-122.25-37.22-122.25-83.09V149.9c0-45.87,72.1-83.09,122.25-83.09Z" transform="translate(-66.35)"/><path class="cls-4" d="M5109.81,66.81h-15.9l-8.6-35.59S5109.81,25.16,5109.81,66.81Z" transform="translate(-66.35)"/><path class="cls-4" d="M5109.81,369.08h-15.9l-8.76,35.59S5109.81,410.68,5109.81,369.08Z" transform="translate(-66.35)"/><path class="cls-5" d="M5351.77,146.7c-13.58-51.82-41.81-62.91-59.07-72.53a117.54,117.54,0,0,0-29.59-9.9A528.76,528.76,0,0,0,5351.77,146.7Z" transform="translate(-66.35)"/><path class="cls-6" d="M4901.23,85c-.32,1.19-.59,2.38-.92,3.57h92c46,0,130.74-21.63,130.74-21.63s-143.83-4.33-216.69,0A151,151,0,0,0,4901.23,85Z" transform="translate(-66.35)"/><path class="cls-6" d="M4896.85,67A627.12,627.12,0,0,0,4775,88.34h116.8C4893.44,81.2,4895.12,74.17,4896.85,67Z" transform="translate(-66.35)"/><path class="cls-7" d="M4591.77,128.26a292.94,292.94,0,0,1,79-52,134.63,134.63,0,0,0-36.08,1.35,81.68,81.68,0,0,0-34.94,30.51A191.33,191.33,0,0,0,4586.09,133,64.24,64.24,0,0,0,4591.77,128.26Z" transform="translate(-66.35)"/><path class="cls-5" d="M5351.77,292.92c-13.58,51.71-41.81,62.91-59.07,72.32a117.54,117.54,0,0,1-29.59,9.9A529.89,529.89,0,0,1,5351.77,292.92Z" transform="translate(-66.35)"/><path class="cls-6" d="M5188.9,331.32c7.3-22.28,14-57.39,14-111.54s-6.49-89.2-14-111.48a43,43,0,0,0-48.69-29.43l-111.54,21.8a8.19,8.19,0,0,0-6.49,8.12c.33,56.2,4.28,111,4.28,111s-4,54.85-4.28,111.06a8.16,8.16,0,0,0,6.49,8.38l111.49,21.64A43,43,0,0,0,5188.9,331.32Z" transform="translate(-66.35)"/><path class="cls-7" d="M4591.77,307.41a295.23,295.23,0,0,0,79,52,132.22,132.22,0,0,1-36.08-1.4,81.81,81.81,0,0,1-34.94-30.46,191.14,191.14,0,0,1-13.63-24.88A49.23,49.23,0,0,1,4591.77,307.41Z" transform="translate(-66.35)"/><path class="cls-6" d="M4901.23,354.85c-.32-1.19-.59-2.38-.92-3.57h92c46,0,130.74,21.91,130.74,21.91s-143.83,4.33-216.69,0C4904.26,367.35,4902.75,360.86,4901.23,354.85Z" transform="translate(-66.35)"/><path class="cls-6" d="M4896.85,372.65A626.65,626.65,0,0,1,4775,351h116.8C4893.44,358.42,4895.12,365.51,4896.85,372.65Z" transform="translate(-66.35)"/><path class="cls-6" d="M4767.68,324.78a259.51,259.51,0,0,1,0-209.94c-24.62-8.6-57.56-11.9-75.3-13.09a19.49,19.49,0,0,0-18.83,10.82,242.83,242.83,0,0,0,0,214.59A19.49,19.49,0,0,0,4692.38,338C4710.12,336.68,4743,333.38,4767.68,324.78Z" transform="translate(-66.35)"/><path class="cls-1" d="M3805.25,422.41h-154.7a16.44,16.44,0,0,0-16.45,16.43v0h0a16.48,16.48,0,0,1-16.48,16.48h-843.9a43.87,43.87,0,0,1-43.87-43.87V111.66a43.88,43.88,0,0,1,43.87-43.88H3805.25a43.88,43.88,0,0,1,43.87,43.88h0V378.49a43.85,43.85,0,0,1-43.8,43.92Z" transform="translate(-66.35)"/><rect class="cls-8" x="2760.8" y="111.97" width="981.71" height="217.6"/><rect class="cls-8" x="2682.34" y="8" width="859.17" height="425.54" rx="29.01"/><path class="cls-9" d="M2801.5,54.23h648.88a17.09,17.09,0,0,1,17.11,17.09h0V387.51" transform="translate(-66.35)"/><line class="cls-10" x1="3430.99" y1="57.15" x2="3519.05" y2="57.15"/><line class="cls-10" x1="3430.99" y1="390.59" x2="3519.05" y2="390.59"/><rect class="cls-11" x="3558.3" y="50.57" width="252.24" height="340.72" rx="15.25"/><path class="cls-12" d="M3870.07,109.12h12.32a5.84,5.84,0,0,1,5.86,5.84V326.61a5.84,5.84,0,0,1-5.85,5.85h-12.33V109.12Z" transform="translate(-66.35)"/><path class="cls-9" d="M3739.75,100.45h80a12.51,12.51,0,0,1,12.5,12.54h0V328.73a12.51,12.51,0,0,1-12.51,12.51h-80" transform="translate(-66.35)"/><path d="M3869,82.58h7.7V359H3869a3.27,3.27,0,0,1-3.28-3.26h0V86a3.28,3.28,0,0,1,3.08-3.46Z" transform="translate(-66.35)"/><circle cx="3596.82" cy="393.83" r="18.34"/><circle cx="3596.82" cy="47.91" r="18.34"/><path class="cls-13" d="M2827.85,211.66c0,6.59,1.42,11.56-1.66,17s-8.44,6.62-14,9.9-8.89,11.13-15.4,11.13-12.6-3.85-17.92-7-5.58-10.13-8.78-15.64-14.68-8.82-14.68-15.41,6-13.25,9.06-18.76a39.12,39.12,0,0,1,13.06-14.48c5.35-3.09,12.52-9.13,19.26-9.13a50.13,50.13,0,0,1,21.61,5.12,51.28,51.28,0,0,1,16,15.41C2837.36,195.29,2827.85,205,2827.85,211.66Z" transform="translate(-66.35)"/><path class="cls-13" d="M2988.44,207c0,6.62,1.46,11.55-1.62,17s-8.43,6.67-13.94,9.87S2964,245,2957.47,245s-12.6-3.85-17.95-6.94-5.51-10.17-8.86-15.67S2916,213.6,2916,207s6.09-13.25,9.17-18.57a39.77,39.77,0,0,1,13.1-14.41c5.35-3.08,12.48-9.13,19.26-9.13a49.77,49.77,0,0,1,21.34,5,51.26,51.26,0,0,1,16.06,15.41C2998,190.7,2988.44,200.6,2988.44,207Z" transform="translate(-66.35)"/><path class="cls-13" d="M3083.66,198.25c0-6.62-1.46-11.55,1.62-17s8.44-6.71,13.95-9.9,8.89-11.14,15.4-11.14,12.6,3.86,17.95,6.94,5.59,10.32,8.86,15.68,14.68,8.78,14.68,15.4S3150,211.49,3147,216.8a39.56,39.56,0,0,1-13.09,14.52c-5.36,3.09-12.48,9.13-19.26,9.13a49.64,49.64,0,0,1-21.5-5,51.55,51.55,0,0,1-16.06-15.4C3074.11,214.59,3083.66,204.88,3083.66,198.25Z" transform="translate(-66.35)"/><path class="cls-13" d="M3229.39,200.14c0,6.59,1.42,11.56-1.66,17s-8.43,6.7-13.94,9.9-8.9,11.13-15.41,11.13-12.6-3.85-17.91-7-5.59-10.13-8.75-15.64S3157,206.71,3157,200.12s6.12-13.25,9.2-18.6a39.67,39.67,0,0,1,13.1-14.49c5.32-3.08,12.48-9.13,19.07-9.13a50.16,50.16,0,0,1,21.53,5,51.06,51.06,0,0,1,16,15.41C3238.9,183.77,3229.39,193.52,3229.39,200.14Z" transform="translate(-66.35)"/><path class="cls-13" d="M3244.53,191.09c.54-6.59-.54-11.75,3-16.8s8.94-6,14.68-8.78,9.75-10.4,16.33-9.9,12.29,4.86,17.34,8.36,4.77,10.56,7.51,16.3,14,9.9,13.44,16.48-7.12,12.75-10.63,17.84A38.87,38.87,0,0,1,3292,228c-5.54,2.66-13.13,8.13-19.76,7.71a50.67,50.67,0,0,1-21-6.63,52,52,0,0,1-14.79-16.91C3233.74,206.65,3244,197.68,3244.53,191.09Z" transform="translate(-66.35)"/><path class="cls-13" d="M3386.78,207.77c-2.54,6.12-3.12,11.56-8,15.1s-10.36,3-16.68,3.85-12.44,6.94-18.57,4.43-10.2-8.36-13.94-13.25-1.31-11.56-2.16-17.83-10.28-13.72-7.7-19.84,10.71-9.9,15.41-13.68a39.93,39.93,0,0,1,17.6-8.47c6.13-.81,15-3.85,21.15-1.2a49.74,49.74,0,0,1,18.1,12.91,50.83,50.83,0,0,1,8.94,20.49C3401.81,196.29,3389.25,201.64,3386.78,207.77Z" transform="translate(-66.35)"/><path class="cls-13" d="M3463.33,211.43c-3.86,5.47-5.44,10.44-11,13.06s-10.75.73-17.07.23-13.67,4.08-19.26.35-8.16-10.37-10.82-15.91,1.19-11.56,1.69-17.88-7.08-15.41-3.31-21,12.56-7.43,18.11-10.05a39.29,39.29,0,0,1,19-4.51c6.12.5,15.4-.42,20.87,3.35a49.9,49.9,0,0,1,14.91,16.29,51.9,51.9,0,0,1,4.55,21.92C3480.47,203.42,3467.1,206,3463.33,211.43Z" transform="translate(-66.35)"/><path class="cls-13" d="M3436.05,122.14c0,6.62,1.47,11.55-1.62,17s-8.43,6.7-13.94,9.9-8.9,11.13-15.41,11.13-12.59-3.85-17.95-6.94-5.55-10.17-8.74-15.67-14.72-8.79-14.72-15.41,6.13-13.25,9.21-18.57a39.7,39.7,0,0,1,13-14.68c5.35-3.08,12.48-9.13,19.26-9.13A50,50,0,0,1,3426.46,85a51.5,51.5,0,0,1,16,15.41C3445.61,105.8,3436.05,115.51,3436.05,122.14Z" transform="translate(-66.35)"/><path class="cls-13" d="M3356.89,122.14c0,6.62,1.47,11.55-1.62,17s-8.43,6.7-13.94,9.9-8.9,11.13-15.41,11.13-12.59-3.85-18-6.94-5.55-10.17-8.74-15.67-14.68-8.79-14.68-15.41,6.09-13.25,9.17-18.57a39.67,39.67,0,0,1,13.1-14.52c5.35-3.08,12.48-9.13,19.26-9.13A49.94,49.94,0,0,1,3347.3,85a51.7,51.7,0,0,1,16.06,15.41C3366.45,105.8,3356.89,115.51,3356.89,122.14Z" transform="translate(-66.35)"/><path class="cls-13" d="M3361.13,77.34c-5.35.38-9.4,1.81-13.91-.39s-5.89-6.47-8.82-10.74-9.51-6.63-9.9-12a30.72,30.72,0,0,1,4.62-15c2.28-4.66,7.94-5.09,12.25-8s6.32-12.45,11.56-12.83,11.09,4.23,15.6,6.43a32,32,0,0,1,12.52,9.82c2.81,4.16,8.09,9.6,8.48,15a40.36,40.36,0,0,1-2.82,17.72,41.23,41.23,0,0,1-11.63,13.75C3374.92,84,3366.48,76.84,3361.13,77.34Z" transform="translate(-66.35)"/><path class="cls-13" d="M3273.49,118.86c.74,6.59,2.7,11.56.2,17.07s-7.71,7.7-12.79,11.32-7.71,12.06-14.22,12.75-12.94-2.5-18.6-5-6.63-9.48-10.36-14.64-15.41-7.17-16.3-13.72,4.66-13.82,7.17-19.49a39.55,39.55,0,0,1,11.55-15.79c5-3.66,11.56-10.44,18-11.13a50.54,50.54,0,0,1,21.92,2.62,51.21,51.21,0,0,1,17.49,13.75C3281.25,101.57,3273,112.28,3273.49,118.86Z" transform="translate(-66.35)"/><path class="cls-13" d="M3190.44,125.57c.74,6.58,2.7,11.55.2,17.1s-7.71,7.7-12.79,11.32-7.71,12-14.22,12.75-12.94-2.5-18.6-5-6.63-9.52-10.37-14.64-15.4-7.17-16.25-13.75,4.62-13.83,7.13-19.46a39.43,39.43,0,0,1,11.55-15.83c5-3.62,11.56-10.4,18-11.09A49.35,49.35,0,0,1,3177,89.59a50.72,50.72,0,0,1,17.6,13.75C3198.19,108.15,3189.75,119,3190.44,125.57Z" transform="translate(-66.35)"/><path class="cls-13" d="M2893.18,66.82c.58,5.24,2.15,9.13,0,13.64s-6.09,6-10.21,9-6.09,9.63-11.33,10.17a29.67,29.67,0,0,1-14.83-3.85c-4.66-2.08-5.27-7.7-8.28-11.56s-12.4-5.74-13-11,3.85-11,5.7-15.4a31.64,31.64,0,0,1,9.13-12.6c3.85-2.93,9.13-8.32,14.37-8.9a39.54,39.54,0,0,1,17.52,2.15,40.86,40.86,0,0,1,14.06,10.94C2899.34,53,2892.64,61.58,2893.18,66.82Z" transform="translate(-66.35)"/><path class="cls-13" d="M2995.07,58.08c.53,5.24,2.11,9.13,0,13.63s-6.13,6-10.25,9-6.09,9.59-11.33,10.17A30.23,30.23,0,0,1,2958.66,87c-4.66-2.08-5.27-7.7-8.28-11.55s-12.25-5.86-12.83-11.29,3.86-11,5.7-15.41a31.58,31.58,0,0,1,9.17-12.63c3.85-2.89,9.09-8.28,14.33-8.86a39.89,39.89,0,0,1,17.34,2,41.15,41.15,0,0,1,14.06,11C3001.25,44.21,2994.49,52.76,2995.07,58.08Z" transform="translate(-66.35)"/><path class="cls-13" d="M2929.08,63.7a13,13,0,0,1,0,6.94c-1,2.34-3.12,3.08-5.2,4.58s-3.12,4.89-5.78,5.2a15.21,15.21,0,0,1-7.7-2c-2.35-1-2.7-3.85-4.24-5.93s-6-2.82-6.36-5.59,1.89-5.62,2.89-7.7a16.32,16.32,0,0,1,4.66-6.44c2-1.46,4.66-4.23,7.32-4.5a20.07,20.07,0,0,1,8.9,1,21.47,21.47,0,0,1,7.17,5.58C2932.25,56.69,2928.77,61,2929.08,63.7Z" transform="translate(-66.35)"/><path class="cls-13" d="M2794.45,139.51a16.85,16.85,0,0,1,0,9.13c-1.39,3.12-4.12,4.08-6.9,6.09s-3.77,6.47-7.62,6.85a20.55,20.55,0,0,1-10-2.69c-3.12-1.39-3.55-5.09-5.55-7.71s-8.36-3.85-8.74-7.36,2.5-7.43,3.85-10.43a21.27,21.27,0,0,1,6.12-8.48c2.7-2,6.17-5.62,9.67-6A26.35,26.35,0,0,1,2787,120.3a27.49,27.49,0,0,1,9.59,7.08C2798.61,130.23,2794.06,136,2794.45,139.51Z" transform="translate(-66.35)"/><path class="cls-13" d="M2825.92,82.35c.54,4.81,2,8.35,0,12.44s-5.43,5.66-9.17,8.24-5.58,9-10.36,9.28a27.53,27.53,0,0,1-13.52-3.62c-4.24-1.88-4.85-6.93-7.71-10.67s-11.32-5.2-11.82-10,3.39-10.06,5.2-14.18a28.71,28.71,0,0,1,8.36-11.55c3.62-2.66,8.32-7.71,13.1-8.13a36.58,36.58,0,0,1,15.94,1.92,37.41,37.41,0,0,1,12.83,10C2831.54,69.63,2825.42,77.57,2825.92,82.35Z" transform="translate(-66.35)"/><path class="cls-13" d="M3067.72,53.11c.57,5.24,2.15,9.13,0,13.63s-6.13,6-10.21,9-6.13,9.59-11.37,10.17a30.34,30.34,0,0,1-14.83-3.85C3026.69,80,3026,74.35,3023,70.5s-12.4-5.74-12.94-11,3.85-11,5.7-15.41a31.5,31.5,0,0,1,9.28-13c3.86-2.89,9.13-8.28,14.37-8.86a39.53,39.53,0,0,1,17.49,2.12,41.15,41.15,0,0,1,14.06,11C3073.88,39.32,3067.14,47.87,3067.72,53.11Z" transform="translate(-66.35)"/><path class="cls-13" d="M3332.51,411.47c.54,5.24,2.12,9.13,0,13.63s-6.13,6-10.21,9-6.12,9.59-11.56,10.17a30.34,30.34,0,0,1-14.83-3.85c-4.66-2.08-5.27-7.71-8.28-11.56s-12.4-5.7-13-10.94,3.85-11,5.7-15.41a31.42,31.42,0,0,1,9.52-13.17c3.85-2.89,9.09-8.28,14.36-8.86a39.64,39.64,0,0,1,17.45,2.08,41.15,41.15,0,0,1,14.06,11C3338.67,397.68,3331.93,406.23,3332.51,411.47Z" transform="translate(-66.35)"/><path class="cls-13" d="M2862.44,138c.58,5.24,2.15,9.13,0,13.64s-6.13,6-10.21,9-6.13,9.59-11.36,10.17A30.34,30.34,0,0,1,2826,167c-4.63-2.08-5.28-7.71-8.29-11.56s-12.4-5.7-13-10.94,3.85-11,5.74-15.41a31,31,0,0,1,9.28-13.17c3.86-2.89,9.13-8.28,14.37-8.86a40.11,40.11,0,0,1,17.49,2.08,40.93,40.93,0,0,1,14,11C2868.52,124.18,2861.86,132.73,2862.44,138Z" transform="translate(-66.35)"/><path class="cls-13" d="M3138.48,61.35c.54,4.89,2,8.51,0,12.71s-5.7,5.63-9.55,8.44-5.71,8.94-10.6,9.48a28,28,0,0,1-13.83-3.86c-4.16-1.77-4.85-6.93-7.55-10.78S3085.4,72,3084.86,67.13s3.46-10.29,5.31-14.48a29.69,29.69,0,0,1,8.52-11.79c3.85-2.7,8.51-7.71,13.4-8.28a37.45,37.45,0,0,1,16.3,2,38.44,38.44,0,0,1,13.13,10.25C3144.25,48.49,3137.94,56.46,3138.48,61.35Z" transform="translate(-66.35)"/><path class="cls-13" d="M3222.92,61.35c.54,4.89,2,8.51,0,12.71s-5.7,5.63-9.56,8.44-5.7,8.94-10.59,9.48a28,28,0,0,1-13.83-3.86c-4.31-1.88-4.93-7.05-7.7-10.9s-11.56-5.31-12.1-10.21,3.47-10.28,5.32-14.48A29.74,29.74,0,0,1,3183,40.74c3.85-2.69,8.51-7.7,13.41-8.28a37.76,37.76,0,0,1,16.33,2,38.4,38.4,0,0,1,13.1,10.24C3228.54,48.49,3222.25,56.46,3222.92,61.35Z" transform="translate(-66.35)"/><path class="cls-13" d="M3306.12,58.08c.5,4.89,2,8.55,0,12.75s-5.7,5.62-9.51,8.4-5.7,9-10.6,9.47a28.07,28.07,0,0,1-13.83-3.85c-4.31-1.93-4.93-7.09-7.7-10.9s-11.56-5.32-12.13-10.21,3.46-10.29,5.35-14.48a29.18,29.18,0,0,1,8.55-11.79c3.86-2.7,8.52-7.71,13.41-8.28a37,37,0,0,1,16.49,1.92,37.67,37.67,0,0,1,13.1,10.25C3311.86,45.21,3305.58,53.15,3306.12,58.08Z" transform="translate(-66.35)"/><path class="cls-13" d="M3111.86,126.26c1.5,6.43,3.85,11,2.23,17s-6.74,8.4-11.32,12.75-6.16,12.86-12.6,14.37-13.13-.89-19.26-2.7-7.7-8.63-12-13.29-16.3-5.24-17.8-11.56,2.93-14.29,4.74-20.18a39.17,39.17,0,0,1,9.47-17.07c4.51-4.23,10.1-11.74,16.53-13.25a50.12,50.12,0,0,1,22.07,0,50.9,50.9,0,0,1,19.26,11.56C3117.45,108.15,3110.36,119.71,3111.86,126.26Z" transform="translate(-66.35)"/><path class="cls-13" d="M3030.31,122.14c1.47,6.47,3.85,11,2.24,17s-6.71,8.43-11.33,12.79-6.16,12.86-12.6,14.36-13.17-.92-19.26-2.73-7.7-8.63-12.05-13.25-16.3-5.24-17.8-11.56,2.93-14.29,4.74-20.18a39.31,39.31,0,0,1,9.47-17.11c4.51-4.2,10.1-11.55,16.53-13.21a49.53,49.53,0,0,1,22.07,0,51.36,51.36,0,0,1,19.26,11.56C3035.9,104.07,3028.81,115.86,3030.31,122.14Z" transform="translate(-66.35)"/><path class="cls-13" d="M2949.42,126.26c1.5,6.43,3.85,11,2.23,17s-6.66,8.4-11.32,12.75-6.17,12.86-12.6,14.37-13.14-.89-19-2.7-7.7-8.63-12.09-13.29-16.53-5.24-18-11.52,3-14.29,4.77-20.18a39.53,39.53,0,0,1,9.44-17.07c4.51-4.23,10.09-11.75,16.53-13.25a50.12,50.12,0,0,1,22.07,0,51.15,51.15,0,0,1,19.26,11.56C2954.81,108.15,2947.72,119.71,2949.42,126.26Z" transform="translate(-66.35)"/><path class="cls-13" d="M2908.12,209.35c0,6.62,1.47,11.56-1.61,17s-8.44,6.7-14,9.9-8.9,11.13-15.41,11.13-12.59-3.85-18-6.93-5.55-10.17-8.74-15.68-14.68-8.79-14.68-15.41,6.09-13.25,9.21-18.61A39.28,39.28,0,0,1,2858,176.27c5.35-3.08,12.48-9.13,19.26-9.13a49.84,49.84,0,0,1,21.49,5,51.48,51.48,0,0,1,16.06,15.41C2917.68,192.9,2908.12,202.72,2908.12,209.35Z" transform="translate(-66.35)"/><path class="cls-13" d="M3068.83,204.73c0,6.62,1.47,11.55-1.65,17s-8.4,6.71-13.91,9.86-8.94,11.18-15.41,11.18-12.59-3.86-18-7-5.74-10.17-8.86-15.68-14.71-8.78-14.71-15.4,6.12-13.22,9.2-18.57a39.22,39.22,0,0,1,13.22-14.48c5.35-3.12,12.48-9.13,19.26-9.13a49.24,49.24,0,0,1,21.49,5,50.91,50.91,0,0,1,16.06,15.4C3078.31,188.39,3068.83,198.14,3068.83,204.73Z" transform="translate(-66.35)"/><path class="cls-13" d="M3445.41,259.7c0-6.59-1.42-11.56,1.66-17s8.44-6.7,13.94-9.9,8.9-11.13,15.41-11.13,12.6,3.85,17.91,6.93,5.59,10.17,8.79,15.68,14.67,8.82,14.67,15.41-6.12,13.25-9.2,18.6a39.39,39.39,0,0,1-13.06,14.49c-5.36,3.08-12.52,9.12-19.26,9.12a50.11,50.11,0,0,1-21.26-5,51.72,51.72,0,0,1-16-15.41C3435.9,276.07,3445.41,266.32,3445.41,259.7Z" transform="translate(-66.35)"/><path class="cls-13" d="M3284.82,264.32c0-6.63-1.46-11.56,1.62-17s8.43-6.7,13.94-9.86,8.9-11.17,15.41-11.17,12.6,3.85,17.95,7,5.55,10.17,8.75,15.68,14.67,8.78,14.67,15.41-6,13.33-9,18.57a39.22,39.22,0,0,1-13.1,14.48c-5.35,3.12-12.48,9.17-19.26,9.17a49.88,49.88,0,0,1-21.49-5,51.84,51.84,0,0,1-16.07-15.41C3275.25,280.65,3284.82,270.91,3284.82,264.32Z" transform="translate(-66.35)"/><path class="cls-13" d="M3123.3,275.3c-1.58-6.44-4.16-11-2.39-16.91s6.63-8.52,11.25-12.91,6.05-12.9,12.48-14.44,13.18.81,19.07,2.58,7.7,8.59,12.17,13.21,16.34,5.08,17.88,11.56-2.85,14.33-4.59,20.22a39.31,39.31,0,0,1-9.36,17.18c-4.47,4.24-10,11.79-16.45,13.33a50.12,50.12,0,0,1-22.07,0A51.31,51.31,0,0,1,3122,297.56C3117.83,293.4,3124.84,281.73,3123.3,275.3Z" transform="translate(-66.35)"/><path class="cls-13" d="M3043.87,271.21c0-6.62-1.42-11.55,1.66-17s8.43-6.71,13.94-9.9,8.9-11.14,15.41-11.14,12.64,3.86,17.95,6.94,5.59,10.17,8.75,15.68,14.71,8.78,14.71,15.4-6.05,13.25-8.94,18.61a39.36,39.36,0,0,1-13.1,14.5c-5.32,3.08-12.48,9.13-19.26,9.13a50,50,0,0,1-21.58-5,51.06,51.06,0,0,1-16-15.41C3034.16,287.55,3043.87,277.84,3043.87,271.21Z" transform="translate(-66.35)"/><path class="cls-13" d="M3020.25,253.26c4.81,4.55,9.47,6.94,11.25,12.87s-.93,10.71-2.39,16.91,2,14.14-2.58,18.95-11.56,6.51-17.38,8.25-11.21-2.93-17.37-4.4-16.49,4.66-21.3,0-5.43-13.52-7.2-19.26a39.48,39.48,0,0,1-1.55-19.26c1.43-6,1.93-15.41,6.48-20.14a49.69,49.69,0,0,1,18.37-12.25,51.36,51.36,0,0,1,22.3-1C3014.9,235.27,3015.44,248.72,3020.25,253.26Z" transform="translate(-66.35)"/><path class="cls-13" d="M2883.25,275.84c0-6.63-1.43-11.56,1.66-17s8.43-6.7,13.94-9.86,8.9-11.17,15.41-11.17,12.59,3.85,17.95,7,5.66,10.17,8.86,15.68,14.68,8.78,14.68,15.41-6.09,13.36-9.21,18.56A38.82,38.82,0,0,1,2933.48,309C2928.12,312,2921,318,2914.25,318a49.73,49.73,0,0,1-21.53-5,51.06,51.06,0,0,1-16-15.41C2873.72,292.17,2883.25,282.42,2883.25,275.84Z" transform="translate(-66.35)"/><path class="cls-13" d="M2803,278.11c0-6.59-1.47-11.56,1.62-17s8.36-6.59,13.79-9.9,8.9-11.13,15.41-11.13,12.59,3.85,17.95,7,5.74,10.17,9,15.68,14.68,8.78,14.68,15.41-6.17,13.21-9.29,18.76a39,39,0,0,1-13.09,14.29c-5.36,3.08-12.49,9.13-19.26,9.13a49.92,49.92,0,0,1-21.5-5,51.8,51.8,0,0,1-16-15.35C2793.41,294.48,2803,284.73,2803,278.11Z" transform="translate(-66.35)"/><path class="cls-13" d="M2916.37,349.22c0-6.63-1.47-11.56,1.61-17s8.33-6.66,13.95-9.86,8.9-11.13,15.41-11.13,12.59,3.85,17.95,6.93,5.55,10.17,8.74,15.68,14.68,8.78,14.68,15.41-6,13.17-9.05,18.57a39.58,39.58,0,0,1-13.1,14.52c-5.35,3.08-12.48,9.13-19.26,9.13a49.92,49.92,0,0,1-21.5-5,51.91,51.91,0,0,1-16.06-15.41C2906.81,365.55,2916.37,355.84,2916.37,349.22Z" transform="translate(-66.35)"/><path class="cls-13" d="M3003.35,345.75c-.73-6.55-2.7-11.55,0-17.06s7.7-7.71,12.79-11.33,7.7-12,14.25-12.75,12.94,2.51,18.57,5,6.62,9.51,10.4,14.64,15.4,7.16,16.25,13.75-4.66,13.79-7.16,19.26a39.23,39.23,0,0,1-11.56,15.79c-5,3.85-11.56,10.44-18,11.14a49.7,49.7,0,0,1-22-2.55,51.11,51.11,0,0,1-17.64-13.74C2995.64,363.05,3004,352.34,3003.35,345.75Z" transform="translate(-66.35)"/><path class="cls-13" d="M3082.78,345.75c-.7-6.55-2.66-11.55,0-17.06s7.7-7.71,12.79-11.33,7.7-12,14.21-12.75,12.94,2.51,18.61,5,6.62,9.51,10.36,14.64,15.41,7.16,16.25,13.75-4.62,13.79-7.12,19.26a38.89,38.89,0,0,1-11.56,15.79c-5,3.85-11.55,10.44-18,11.14a49.55,49.55,0,0,1-22-2.55,51.73,51.73,0,0,1-17.65-13.75C3075.07,363.05,3083.51,352.34,3082.78,345.75Z" transform="translate(-66.35)"/><path class="cls-13" d="M3204.5,412.2c-.57-5.24-2.15-9.13,0-13.64s6.13-6,10.21-9,6.13-9.63,11.56-10.17a29.83,29.83,0,0,1,14.83,3.85c4.62,2.08,5.28,7.71,8.28,11.56s12.4,5.74,12.94,11-3.85,11-5.7,15.41a31.17,31.17,0,0,1-9.13,12.59c-3.85,2.93-9.13,8.32-14.37,8.9a39.52,39.52,0,0,1-17.48-2.12,41,41,0,0,1-14.06-10.94C3198.34,426,3205.08,417.44,3204.5,412.2Z" transform="translate(-66.35)"/><path class="cls-13" d="M3134.78,410c-.54-4.89-2-8.51,0-12.71s5.7-5.62,9.55-8.43,5.7-8.94,10.6-9.48a27.57,27.57,0,0,1,13.83,3.85c4.31,1.89,4.93,7,7.7,10.87s11.56,5.35,12.1,10.24-3.47,10.29-5.32,14.49a29.42,29.42,0,0,1-8.51,11.55c-3.86,2.74-8.52,7.71-13.41,8.28a37,37,0,0,1-16.29-1.92,38.77,38.77,0,0,1-13.14-10.25C3129,422.87,3135.32,414.9,3134.78,410Z" transform="translate(-66.35)"/><path class="cls-13" d="M3050.46,410c-.54-4.89-2-8.51,0-12.71s5.7-5.62,9.55-8.43,5.66-8.94,10.59-9.48a27.6,27.6,0,0,1,13.83,3.85c4.32,1.89,4.9,7,7.71,10.87s11.55,5.35,12.09,10.24-3.46,10.29-5.31,14.49a29.27,29.27,0,0,1-8.52,11.55c-3.85,2.74-8.51,7.71-13.4,8.28a37.17,37.17,0,0,1-16.33-1.92,38.53,38.53,0,0,1-13.1-10.25C3044.72,422.87,3051,414.9,3050.46,410Z" transform="translate(-66.35)"/><path class="cls-13" d="M2967.14,413.28c-.54-4.89-2-8.51,0-12.71s5.74-5.63,9.55-8.4,5.7-9,10.59-9.52a28.37,28.37,0,0,1,13.83,3.86c4.32,1.92,4.93,7.05,7.71,10.9s11.55,5.31,12.13,10.21-3.47,10.28-5.35,14.48a29.08,29.08,0,0,1-8.52,11.79c-3.85,2.69-8.51,7.7-13.4,8.28A30.9,30.9,0,0,1,2964.25,430C2961.4,426.14,2967.68,418.17,2967.14,413.28Z" transform="translate(-66.35)"/><path class="cls-13" d="M2841.56,345.48c-.54-4.89-2-8.51,0-12.71s5.7-5.66,9.51-8.44,5.71-9,10.6-9.47a27.8,27.8,0,0,1,13.83,3.85c4.35,1.93,4.93,7.09,7.7,10.9s11.56,5.32,12.1,10.21-3.47,10.28-5.32,14.48a29.38,29.38,0,0,1-8.51,11.79c-3.86,2.7-8.52,7.7-13.41,8.28a37.33,37.33,0,0,1-16.33-2,38.6,38.6,0,0,1-13.1-10.21C2835.7,358.31,2842,350.37,2841.56,345.48Z" transform="translate(-66.35)"/><path class="cls-13" d="M2762.4,352.18c-.54-4.89-2-8.51,0-12.71s5.7-5.62,9.55-8.43,5.7-8.94,10.6-9.48a27.53,27.53,0,0,1,13.82,3.85c4.32,1.89,4.93,7,7.71,10.87s11.55,5.35,12.09,10.24-3.42,10.29-5.31,14.49a29.27,29.27,0,0,1-8.52,11.55c-3.85,2.74-8.51,7.71-13.4,8.28a37,37,0,0,1-16.29-1.92,38.77,38.77,0,0,1-13.14-10.25C2756.81,365.05,2762.94,357.08,2762.4,352.18Z" transform="translate(-66.35)"/><path class="cls-13" d="M2802.19,406.19c-.54-4.89-2-8.51,0-12.71s5.7-5.63,9.52-8.44,5.7-8.93,10.59-9.47a27.8,27.8,0,0,1,13.83,3.85c4.35,1.92,4.93,7.09,7.7,10.9s11.56,5.35,12.1,10.25-3.47,10.28-5.32,14.48a28.87,28.87,0,0,1-8.55,11.75c-3.85,2.73-8.51,7.7-13.41,8.28a36.55,36.55,0,0,1-16.29-2,38,38,0,0,1-13.1-10.21C2796.41,419.06,2802.69,411.08,2802.19,406.19Z" transform="translate(-66.35)"/><path class="cls-13" d="M2867.33,417.94c-.62-5.86-2.39-10.21,0-15.41s6.82-6.74,11.56-10,6.81-10.71,12.67-11.56a33.36,33.36,0,0,1,16.52,4.47c5.17,2.27,5.9,8.44,9.25,13s13.83,6.36,14.45,12.21-4.13,12.29-6.36,17.3a34.51,34.51,0,0,1-10.67,14.44c-4.43,3.28-10.17,9.29-16,9.9a44.12,44.12,0,0,1-19.5-2.29,45.71,45.71,0,0,1-15.68-12.25C2860.47,433.27,2868,423.76,2867.33,417.94Z" transform="translate(-66.35)"/><path class="cls-13" d="M2733.7,281.11c-.54-4.89-2-8.51,0-12.71s5.7-5.62,9.55-8.43,5.55-9,10.44-9.29a28,28,0,0,1,13.83,3.85c4.32,1.93,4.93,7.09,7.71,10.91s11.55,5.31,12.09,10.2-3.47,10.29-5.31,14.49a29.21,29.21,0,0,1-8.52,11.78c-3.85,2.7-8.51,7.71-13.4,8.29a37,37,0,0,1-16.3-2,38.55,38.55,0,0,1-13.13-10.55C2728,293.94,2734.25,286,2733.7,281.11Z" transform="translate(-66.35)"/><path class="cls-13" d="M3161.25,345.1c-1.5-6.44-3.85-11-2.23-17s6.7-8.44,11.32-12.79,6.17-12.87,12.6-14.37,13.14.92,19.26,2.74,7.7,8.62,12.06,13.28,16.29,5.24,17.79,11.56-3,14.29-4.73,20.19a39.06,39.06,0,0,1-9.48,17.06c-4.51,4.24-10.09,11.56-16.53,13.21a49.53,49.53,0,0,1-22.07,0A51.15,51.15,0,0,1,3160,367.43C3155.81,363.16,3162.9,351.53,3161.25,345.1Z" transform="translate(-66.35)"/><path class="cls-13" d="M3243,349.18c-1.47-6.43-3.85-11-2.24-16.91s6.71-8.44,11.33-12.79,6.16-12.87,12.59-14.37,13.18.93,19.07,2.7,7.71,8.67,12.06,13.29,16.29,5.24,17.8,11.55-2.93,14.3-4.74,20.19a39.14,39.14,0,0,1-9.48,17.26c-4.5,4.2-10.09,11.55-16.52,13.21a50.16,50.16,0,0,1-22.08,0,52.2,52.2,0,0,1-19.26-11.56C3237.36,367.28,3244.45,355.65,3243,349.18Z" transform="translate(-66.35)"/><path class="cls-13" d="M3324,345.1c-1.5-6.44-4-11-2.23-17s6.66-8.44,11.32-12.79,6.17-12.87,12.6-14.37,13.14.92,19,2.74,7.7,8.62,12.1,13.28,16.29,5.24,17.79,11.56-3,14.29-4.77,20.19a39.4,39.4,0,0,1-9.44,17.06c-4.51,4.24-10.09,11.56-16.53,13.21a49.53,49.53,0,0,1-22.07,0,50.75,50.75,0,0,1-19.26-11.55C3318.45,363.16,3325.54,351.53,3324,345.1Z" transform="translate(-66.35)"/><path class="cls-13" d="M3365.1,262c0-6.63-1.43-11.56,1.65-17s8.44-6.7,14.1-9.75,8.9-11.13,15.41-11.13,12.6,3.85,17.95,6.93,5.55,10.17,8.75,15.68,14.67,8.79,14.67,15.41-6.08,13.25-9.2,18.57a39.21,39.21,0,0,1-12.91,14.37c-5.35,3.08-12.48,9.13-19.26,9.13a49.88,49.88,0,0,1-21.49-5,51.84,51.84,0,0,1-16.07-15.41C3355.58,278.34,3365.1,268.63,3365.1,262Z" transform="translate(-66.35)"/><path class="cls-13" d="M3404.89,339.05c0-6.63-1.43-11.56,1.66-17s8.43-6.66,13.94-9.86,8.9-11.13,15.41-11.13,12.63,3.85,17.95,6.93,5.58,10.17,8.74,15.68,14.72,8.78,14.72,15.41-6.13,13.25-9.21,18.57A39.64,39.64,0,0,1,3455,372.17c-5.32,3.08-12.49,9.13-19.27,9.13a50.2,50.2,0,0,1-21.49-5,51.06,51.06,0,0,1-16-15.41C3395.34,355.38,3404.89,345.67,3404.89,339.05Z" transform="translate(-66.35)"/><path class="cls-13" d="M3354.25,414.78c0-6.62-1.43-11.56,1.65-17s8.44-6.66,14-9.86,8.9-11.13,15.41-11.13,12.59,3.85,18,6.93,5.54,10.17,8.74,15.68,14.68,8.79,14.68,15.41-6.09,13.25-9.21,18.57a39.23,39.23,0,0,1-13.06,14.52c-5.35,3.08-12.48,9.13-19.26,9.13a49.88,49.88,0,0,1-21.49-5,51.84,51.84,0,0,1-16.07-15.41C3344.68,431.11,3354.25,421.41,3354.25,414.78Z" transform="translate(-66.35)"/><path class="cls-13" d="M3201.85,265.28c0-6.59-1.43-11.55,1.65-17s8.44-6.7,13.95-9.9,8.89-11.13,15.4-11.13,12.6,3.85,17.92,7,5.58,10.13,8.78,15.64,14.68,8.82,14.68,15.41-6.13,13.25-9.21,18.61A39.44,39.44,0,0,1,3252,298.39c-5.35,3.08-12.52,9.13-19.26,9.13a50.13,50.13,0,0,1-21.34-5,51.5,51.5,0,0,1-16-15.41C3192.33,281.5,3201.85,271.91,3201.85,265.28Z" transform="translate(-66.35)"/><path class="cls-1" d="M9706.66,456.84c2.86-10.36,1.16-16.73-1.6-20.66,45.84-.64,83.82-1.23,107.24-1.23,65.81,0,106.65-3.18,130.39-15.93h0a44.2,44.2,0,0,0,4.3-2.55l1.07-.74,3.08-2.23a45,45,0,0,0,3.77-3.4h0a30.57,30.57,0,0,0,4.25-5.31l.53-.91c.8-1.33,1.54-2.71,2.28-4.19h0c.91-1.92,1.76-4,2.61-6.16h0v-.64h0c.58-1.6,1.16-3.3,1.7-5.31l.31-1c.54-1.76,1.07-3.51,1.54-5.31h0c1.6-5.95,3-12.49,4.15-19.28h0V360.5h0c1.06-6.48,2-13.17,2.76-20h0c1.27-11,2.12-22.15,2.71-32.51V237.8a470.89,470.89,0,0,0-6.16-56.3v-.38a22.12,22.12,0,0,0-.69-3.77h0c-.8-3.77-1.6-7.43-2.5-10.94a1.48,1.48,0,0,0,0-.42,12.25,12.25,0,0,0-.69-2.66l-.37-1.33a7.61,7.61,0,0,0-.69-2.28l-.48-1.54-.64-2a7.2,7.2,0,0,0-.58-1.75l-.64-1.75-1-2.39-.69-1.6-1-2.23c0-.42-.37-.8-.58-1.17s-.58-1.17-.9-1.75l-.64-1.06-1-1.6-.63-1c-.32-.53-.75-1-1.12-1.54a5.76,5.76,0,0,0-.53-.69c-.58-.69-1.12-1.33-1.75-2h0a41.1,41.1,0,0,0-3.61-3.24h0c-21.25-17.74-60.66-21.77-139.16-21.77-23.21,0-60.82-.59-106.23-1.23a25.54,25.54,0,0,0,.48-18.74c-3.77-13.55-10.62-18.44-15.4-20.13a3.7,3.7,0,0,0-4.7,2.32v0a3.73,3.73,0,0,0-.07,2.12l8.23,34.25c-40.47-.53-86.42-1.06-133.53-1.22a2.71,2.71,0,0,0-2.71-2.55h-16A2.73,2.73,0,0,0,9539,108h-39.73a2.76,2.76,0,0,0-2.76-2.55h-16.62a2.76,2.76,0,0,0-2.76,2.71c-131.09.9-251,6.32-265.2,23.9a94.08,94.08,0,0,0-10.36,16.57h0c-1.43,3-2.76,6-4,9.19a5.61,5.61,0,0,0,0,.58c-1.17,3-2.23,6-3.19,9.14a6,6,0,0,0,0,.85c-1,3.08-1.86,6.27-2.71,9.45h0v.69a279.21,279.21,0,0,0-7.2,39.74V220c0,2.29-.43,4.52-.59,6.75V229a31.84,31.84,0,0,1-.42,6.32v74.84a33.42,33.42,0,0,0,.42,6.32v2.23c0,2.23.38,4.46.59,6.74v1.76a280.34,280.34,0,0,0,6.58,39.67v.64h0c.85,3.19,1.76,6.37,2.71,9.45a4,4,0,0,0,0,.85c1,3.14,2,6.16,3.19,9.14v.64a97.1,97.1,0,0,0,14.34,25.7c14.23,17.58,134.11,23,265.2,24.06a2.8,2.8,0,0,0,2.76,2.71h16.62a2.76,2.76,0,0,0,2.76-2.6h39.73a2.78,2.78,0,0,0,2.76,2.55h16.63a2.77,2.77,0,0,0,2.71-2.6c47.27,0,93.37-.69,134-1.22l-8.71,36.17a3.72,3.72,0,0,0,4.78,4.46C9696.19,475.27,9702.78,470.38,9706.66,456.84Z" transform="translate(-66.35)"/><path class="cls-24" d="M9854.15,390.13c79.14,0,122.16-4.57,142.77-25.13s24.54-102.45,24.54-137.14S10017.58,111,9997,90.78s-59.75-25.12-142.88-25.12c-113.82,0-571.66-13.81-600.18,21.56s-29.74,105.06-29.74,140.64,1.06,105.54,29.63,140.65S9740.33,390.13,9854.15,390.13Z" transform="translate(-66.35)"/><path class="cls-25" d="M9836.25,376.16c76.59,0,104.9-4.15,123.65-23s26.56-93.59,26.56-125.3-7.7-106.54-26.56-125.34-38.61-22.9-123.65-22.9A375.87,375.87,0,0,0,9765.61,87c-22.31,10-59.17,15.4-95.07,19.17a55.08,55.08,0,0,0-29.64-6.8c-16.68-5.68-74.09-1.43-95.6,0h-6.16s-75.16-3.4-108.3,0a95.21,95.21,0,0,0-21.67,4.09c-10.2,1.17-52.69-12.9-60.55-11.42-15.94,2.92-61,2.76-64.69,7.28-26.45,32.24-27.3,96-27.3,128.53s1.06,96.19,27.24,128.59c3.67,4.52,49,4.36,64.7,7.28,7.86,1.49,50.35-12.64,60.54-11.47a89.48,89.48,0,0,0,21.67,4.14c33.15,3.4,108.3,0,108.3,0h6.16c21.78,1.43,79.2,5.68,95.61,0a55.48,55.48,0,0,0,29.64-6.8c35.9,3.72,72.76,9.14,95.07,19.12A375.64,375.64,0,0,0,9836.25,376.16Z" transform="translate(-66.35)"/><polygon class="cls-24" points="9854.25 275.61 9705.58 303.71 9703.94 293.03 9854.25 275.61"/><polygon class="cls-24" points="9854.25 180.17 9703.94 162.69 9705.58 152.07 9854.25 180.17"/><path class="cls-16" d="M9545,99.38h99.32L9758,77.77c-40.69-4.31-141.82-4.63-213-3.78Z" transform="translate(-66.35)"/><path class="cls-16" d="M9538.87,74.05c-74.36,1-138.57,3.08-138.57,3.08l30.27,22.25h108.3Z" transform="translate(-66.35)"/><path class="cls-24" d="M9811.46,227.86s1-82.27-41.9-143l-95.08,19.44s27.46,33.46,27.46,123.59-27.46,123.6-27.46,123.6L9769.6,371C9812.51,310.14,9811.46,227.86,9811.46,227.86Z" transform="translate(-66.35)"/><path class="cls-16" d="M9807.52,227.86s1-81-41.91-140.85l-95.07,19.17S9698,139.11,9698,227.86s-27.46,121.74-27.46,121.74l95.07,19.12C9808.53,308.92,9807.52,227.86,9807.52,227.86Z" transform="translate(-66.35)"/><path class="cls-17" d="M9545,356.4h99.32L9757.8,378c-40.68,4.3-141.81,4.62-213,3.83Z" transform="translate(-66.35)"/><path class="cls-17" d="M9538.87,381.68c-74.36-.9-138.57-3-138.57-3l30.27-22.25h108.3Z" transform="translate(-66.35)"/><path class="cls-16" d="M9408.9,352.26c-8.07-30.17-8.07-218.57,0-248.79,0,0-36.65-14.18-60.55-11.42-12.16,20.4-27.56,63.74-27.56,135.81s15.51,115.42,27.56,135.87C9372.25,366.49,9408.9,352.26,9408.9,352.26Z" transform="translate(-66.35)"/><path class="cls-17" d="M9670.54,349.6l95.07,19.12c42.92-59.8,41.91-140.86,41.91-140.86H9698C9698,316.67,9670.54,349.6,9670.54,349.6Z" transform="translate(-66.35)"/><path class="cls-17" d="M9408.9,352.26c-.26-1-.48-2.13-.69-3.24a9.55,9.55,0,0,1,0-1.07l-.32-2.07c-3.18-20.71-4.83-69.31-4.83-118h-82.27c0,72.13,15.4,115.42,27.56,135.87C9372.25,366.49,9408.9,352.26,9408.9,352.26Z" transform="translate(-66.35)"/><path class="cls-16" d="M10009.93,285.6c2.66,3.08,5.32,6.27,7.71,9.51a612.77,612.77,0,0,0,0-134.7c-2.5,3.24-5,6.43-7.71,9.51C10008.34,171.94,10008.34,283.85,10009.93,285.6Z" transform="translate(-66.35)"/><path class="cls-26" d="M9980,79.31a6.2,6.2,0,0,0-5.31,4.09,7.6,7.6,0,0,0-.32,1.43,6.11,6.11,0,0,0,4.2,6.53c27,7.65,30.11,44.51,31.44,47.8.85,2,3.61,2.93,4.67,1.65-3.66-22.09-9.34-41.37-18-49.93A56.85,56.85,0,0,0,9980,79.31Z" transform="translate(-66.35)"/><path class="cls-21" d="M9990.65,97.63a17.1,17.1,0,0,0,5.9-7.22A57.52,57.52,0,0,0,9980,79.31a6.2,6.2,0,0,0-5.31,4.09,7.6,7.6,0,0,0-.32,1.43,6.16,6.16,0,0,0,4.2,6.53A33.48,33.48,0,0,1,9990.65,97.63Z" transform="translate(-66.35)"/><path class="cls-26" d="M9974.88,372.49a6.19,6.19,0,0,0,4.67,4,56,56,0,0,0,17.37-11.21,24.31,24.31,0,0,0,1.86-2.07h0a42.27,42.27,0,0,0,5-8.18h0c1-2,1.86-4.09,2.71-6.32v-.64a117.9,117.9,0,0,0,3.56-11.47,2.33,2.33,0,0,1,.43-1.6c.53-2.12,1.06-4.3,1.54-6.53l.47-2.23.8-3.88c.32-1.7.64-3.4.9-5.31v-1.49c-1.11-1.22-3.82,0-4.67,1.65-1.33,3.19-4.41,40.05-31.44,47.8a6.17,6.17,0,0,0-4.2,6.54A6.83,6.83,0,0,0,9974.88,372.49Z" transform="translate(-66.35)"/><path class="cls-21" d="M9976.46,374.83l.32.32a9.27,9.27,0,0,0,1.27.79h0a6.64,6.64,0,0,0,1.49.48h0a57.1,57.1,0,0,0,17-11.15,17,17,0,0,0-5.85-7.07,31.24,31.24,0,0,1-4.24,2.87l-2,1.12-1.49.69a31.61,31.61,0,0,1-4.14,1.54,5.29,5.29,0,0,0-3.24,2.5,6.8,6.8,0,0,0-1,4,7.88,7.88,0,0,0,.32,1.44,7,7,0,0,0,.8,1.54Z" transform="translate(-66.35)"/><path class="cls-16" d="M9224.12,227.86a527.62,527.62,0,0,0,3,61.83l1.7-.32a10.61,10.61,0,0,0,8.28-10.62,995.21,995.21,0,0,1,0-102.19,10.26,10.26,0,0,0-8.28-10.63l-1.7-.31A530.26,530.26,0,0,0,9224.12,227.86Z" transform="translate(-66.35)"/><path class="cls-18" d="M9233.63,145.75h0a6.21,6.21,0,0,0,7.33-4.67q3.51-14.78,8.18-29.27a6.11,6.11,0,0,0-3.82-7.75h0a4.68,4.68,0,0,0-1.75,0,163.29,163.29,0,0,0-12.91,40.15A5.69,5.69,0,0,0,9233.63,145.75Z" transform="translate(-66.35)"/><path class="cls-18" d="M9245.46,351.67a6.21,6.21,0,0,0,3.82-7.65q-4.65-14.49-8.18-29.21a6.15,6.15,0,0,0-7.33-4.67h0a5.57,5.57,0,0,0-3,1.7,163.34,163.34,0,0,0,12.9,40.16,4.68,4.68,0,0,0,1.75,0Z" transform="translate(-66.35)"/><path class="cls-16" d="M9746.54,67.83l-13.86-1a3.41,3.41,0,0,0-3,1.49L9728,71l23.48,2.75-2.28-4.2A3.2,3.2,0,0,0,9746.54,67.83Z" transform="translate(-66.35)"/><path class="cls-25" d="M9737.2,67l-8.87-37.18a3.77,3.77,0,0,1,2.78-4.54h0a3.87,3.87,0,0,1,2,.08c4.89,1.7,11.58,6.59,15.35,20.13s-.37,20.45-4.41,23.74a4.34,4.34,0,0,1-6.9-2.23Z" transform="translate(-66.35)"/><path class="cls-16" d="M9746.54,389.81l-13.86.95a3.34,3.34,0,0,1-3-1.43l-1.7-2.66,23.47-2.81-2.28,4.25A3.3,3.3,0,0,1,9746.54,389.81Z" transform="translate(-66.35)"/><path class="cls-25" d="M9737.2,390.66l-8.87,37.18a3.77,3.77,0,0,0,2.78,4.54h0a3.88,3.88,0,0,0,2-.08c4.89-1.75,11.58-6.64,15.35-20.13s-.37-20.45-4.41-23.74a4.34,4.34,0,0,0-6.9,2.23Z" transform="translate(-66.35)"/><path class="cls-27" d="M9233.63,145.75h0a6.21,6.21,0,0,0,7.33-4.67c.58-2.45,1.27-4.84,1.91-7.28L9233,133c-.9,3.62-1.7,7.28-2.44,10.94A5.63,5.63,0,0,0,9233.63,145.75Z" transform="translate(-66.35)"/><path class="cls-27" d="M9233.73,310h0a5.57,5.57,0,0,0-3,1.7c.74,3.72,1.54,7.38,2.44,11l9.88-.8c-.64-2.44-1.33-4.88-1.91-7.27a6.17,6.17,0,0,0-7.38-4.64Z" transform="translate(-66.35)"/><rect class="cls-24" x="9438.85" y="160.52" width="104.74" height="134.7" rx="9.83"/><path class="cls-16" d="M9874.68,282.2V173.58a9.2,9.2,0,0,1,9.08-9.29h79.3a9.2,9.2,0,0,1,9.14,9.24V282.2a9.18,9.18,0,0,1-9.07,9.29h-79.31a9.18,9.18,0,0,1-9.13-9.23h0Z" transform="translate(-66.35)"/><path class="cls-17" d="M9606.32,282.2V227.86h-97.51V282.2a9.2,9.2,0,0,0,9.08,9.29h79.3a9.18,9.18,0,0,0,9.14-9.24h0Z" transform="translate(-66.35)"/><path class="cls-16" d="M9583.7,60.5h16.57a2.82,2.82,0,0,1,2.82,2.82h0a2.81,2.81,0,0,1-2.82,2.81H9583.7a2.81,2.81,0,0,1-2.82-2.8h0A2.82,2.82,0,0,1,9583.7,60.5Z" transform="translate(-66.35)"/><path class="cls-16" d="M9521.87,60.5h16.59a2.81,2.81,0,0,1,2.81,2.81h0a2.81,2.81,0,0,1-2.81,2.81h-16.58a2.81,2.81,0,0,1-2.81-2.81h0a2.82,2.82,0,0,1,2.8-2.82Z" transform="translate(-66.35)"/><path class="cls-16" d="M9583.7,389.65h16.57a2.81,2.81,0,0,1,2.82,2.81h0a2.82,2.82,0,0,1-2.82,2.82H9583.7a2.82,2.82,0,0,1-2.82-2.82h0a2.81,2.81,0,0,1,2.81-2.81Z" transform="translate(-66.35)"/><path class="cls-16" d="M9521.87,389.65h16.59a2.81,2.81,0,0,1,2.81,2.81h0a2.81,2.81,0,0,1-2.8,2.82h-16.59a2.81,2.81,0,0,1-2.81-2.81h0A2.82,2.82,0,0,1,9521.87,389.65Z" transform="translate(-66.35)"/><path class="cls-1" d="M541.56,462.12a15.72,15.72,0,0,0-3.35-16.47c43.79-.6,80.83-1.2,104.6-1.2,78,0,120.47-4.51,140.74-24.78,16.12-16.11,21.82-70.82,23.63-109.41h0c.25-5.75.4-11.16.5-16.06V275c0-5,0-10.31-.5-16.07h0c-1.66-38.79-7.36-93.29-23.48-109.41-20.27-20.27-58.81-24.77-140.74-24.77-23.77,0-60.81-.6-104.6-1.2a15.72,15.72,0,0,0,3.35-16.47A21.18,21.18,0,0,0,524,90.82a4.34,4.34,0,0,0-5.06,3.48h0a4.17,4.17,0,0,0,.06,1.86l6.55,27.18c-40-.55-85.08-1.1-130.12-1.2a2.77,2.77,0,0,0-2.71-2.46H376.15a2.76,2.76,0,0,0-2.71,2.46H334.37a2.76,2.76,0,0,0-2.75-2.66H315.19a2.77,2.77,0,0,0-2.76,2.76h0c-108.91,1.5-203.6,7.25-216.71,23.47a87.73,87.73,0,0,0-10,16.32h0c-1.41,2.9-2.76,5.9-4,9v.6c-1.1,3-2.2,6-3.15,9l-.25.86c-1,3.05-1.85,6.15-2.65,9.31v.7c-.85,3.35-1.61,6.75-2.31,10h0a437.44,437.44,0,0,0-7,83,437.48,437.48,0,0,0,6.4,82.63h0c.7,3.4,1.45,6.81,2.31,10v.7c.8,3.15,1.7,6.26,2.65,9.31L78,388c1,3,2,6.11,3.2,9a3,3,0,0,0,0,.6A97.8,97.8,0,0,0,95.42,423c13.11,16.16,107.8,21.92,216.71,23.42h0a2.75,2.75,0,0,0,2.75,2.75H331.7a2.7,2.7,0,0,0,2.75-2.65h39.09a2.72,2.72,0,0,0,2.71,2.45h16.41a2.77,2.77,0,0,0,2.71-2.45c45.34,0,90.08-.65,130.12-1.2l-6.55,27.18a4.36,4.36,0,0,0,3.14,5.29h0a4.44,4.44,0,0,0,1.85.06A21.06,21.06,0,0,0,541.56,462.12Z" transform="translate(-66.35)"/><path class="cls-28" d="M686.56,397.35c78,0,120.52-4.45,140.74-24.72s24.07-101,24.07-135.14-3.8-115.11-24.07-135.13S768.49,77.53,686.56,77.53c-112.22,0-518.82-13.61-547,21.07s-29.33,103.76-29.33,138.84,1.25,103.75,29.33,138.64S574.37,397.35,686.56,397.35Z" transform="translate(-66.35)"/><path class="cls-29" d="M668.89,383.89c75.47,0,103.4-4.11,121.92-22.62s26.38-92.5,26.38-123.83-7.61-105.1-26.13-123.52S753,91.3,669.14,91.3a368.55,368.55,0,0,0-69.87,7.3c-22,10-58.31,15-93.75,18.87a54.25,54.25,0,0,0-29.17-6.7c-16.47-5.56-51.26-1.41-72.68,0h-6.1s-74.08-3.36-106.81,0a94.29,94.29,0,0,0-21.32,4c-10,1.15-51.95-12.71-59.66-11.26-15.52,2.9-37.29,2.7-40.89,7.16-25.78,31.93-26.83,94.64-26.83,126.72s1,94.85,26.83,126.73c3.6,4.5,25.37,4.3,40.89,7.21,7.71,1.45,49.65-12.47,59.66-11.32a91.68,91.68,0,0,0,21.32,4.11c32.73,3.3,106.81,0,106.81,0h6.1c21.42,1.4,56.21,5.55,72.68,0a54.35,54.35,0,0,0,29.17-6.71c35.44,3.65,71.78,9,93.75,18.87A372.81,372.81,0,0,0,668.89,383.89Z" transform="translate(-66.35)"/><path class="cls-16" d="M403.67,110.77H480L592,89.49c-40-4.25-118-4.55-188.14-3.75Z" transform="translate(-66.35)"/><path class="cls-16" d="M397.57,85.84c-73.33.9-136.59,3-136.59,3l30,21.93H397.57Z" transform="translate(-66.35)"/><path class="cls-16" d="M640.56,237.44s1-80.08-41.29-138.84l-93.75,18.87S532.6,150,532.6,237.59s-27.08,120.12-27.08,120.12l93.75,18.87C641.56,317.32,640.56,237.44,640.56,237.44Z" transform="translate(-66.35)"/><path class="cls-17" d="M403.67,364.17H480l112,21.27c-40,4.2-118,4.55-188.14,3.7Z" transform="translate(-66.35)"/><path class="cls-17" d="M397.57,388.89c-73.33-.95-136.59-3-136.59-3L291,364H397.57Z" transform="translate(-66.35)"/><path class="cls-16" d="M269.44,360.06c-8-29.73-8-215.21,0-245.24,0,0-36.09-14-59.66-11.26-12,20-27.23,62.81-27.23,133.88s15,113.76,27.23,133.94C233.37,373.88,269.44,360.06,269.44,360.06Z" transform="translate(-66.35)"/><path class="cls-29" d="M570.74,82.09l-8-33.14a4.36,4.36,0,0,1,3.14-5.29h0a4.49,4.49,0,0,1,1.86-.06,21.12,21.12,0,0,1,17.71,16.26C590.61,78.58,570.74,82.09,570.74,82.09Z" transform="translate(-66.35)"/><path class="cls-29" d="M570.74,392.85l-8,33.13a4.29,4.29,0,0,0,5,5.3,21.1,21.1,0,0,0,17.71-16.21C590.61,396.2,570.74,392.85,570.74,392.85Z" transform="translate(-66.35)"/><path class="cls-17" d="M505.52,357.46l93.75,18.87c42.29-59,41.29-138.89,41.29-138.89h-108C532.6,325,505.52,357.46,505.52,357.46Z" transform="translate(-66.35)"/><path class="cls-17" d="M269.44,360.06c-.25-1-.5-2.05-.7-3.2v-1.05a4.72,4.72,0,0,0-.35-2c-3.15-20.42-5-68.37-5-116.37H182.55c0,71.12,15,113.76,27.23,133.94C233.37,373.88,269.44,360.06,269.44,360.06Z" transform="translate(-66.35)"/><path class="cls-16" d="M838.21,276.33l10.91,5.36h.6c1.25-17.27,1.65-33.34,1.65-44.45s-.4-27.13-1.65-44.39h-.6l-10.91,5.85a5.71,5.71,0,0,0-3.26,5v67.47A5.77,5.77,0,0,0,838.21,276.33Z" transform="translate(-66.35)"/><path class="cls-26" d="M792.71,100.35a5.69,5.69,0,0,1,5.66-5.71,5.76,5.76,0,0,1,1.37.16c20,4.7,31.38,20,35.78,48.55a5.76,5.76,0,0,1-11.36,1.75c-4.65-30-16.91-36.74-27.07-39.14A5.81,5.81,0,0,1,792.71,100.35Z" transform="translate(-66.35)"/><path class="cls-21" d="M813.18,100.35a41.64,41.64,0,0,0-13.41-5.55,5.71,5.71,0,0,0-6.9,4.2h0a6.24,6.24,0,0,0-.16,1.36,5.81,5.81,0,0,0,4.41,5.61,29.59,29.59,0,0,1,10.31,4.4A16.67,16.67,0,0,0,813.18,100.35Z" transform="translate(-66.35)"/><path class="cls-26" d="M792.71,374.53a6.09,6.09,0,0,0,0,1.35,5.76,5.76,0,0,0,6.91,4.25c20-5,31.38-20,35.78-48.54A5.76,5.76,0,0,0,824,329.78c-4.65,30-16.91,36.79-27.07,39.19A5.73,5.73,0,0,0,792.71,374.53Z" transform="translate(-66.35)"/><path class="cls-21" d="M813.18,374.53a42.76,42.76,0,0,1-13.41,5.6,5.76,5.76,0,0,1-6.91-4.25,6.09,6.09,0,0,1,0-1.35,5.71,5.71,0,0,1,4.31-5.66,30.52,30.52,0,0,0,10.31-4.4A16.8,16.8,0,0,1,813.18,374.53Z" transform="translate(-66.35)"/><path class="cls-29" d="M113.93,237.44a515.76,515.76,0,0,0,3.11,62l6.9-1.35a10,10,0,0,0,8.21-10,995.79,995.79,0,0,1,0-100.75A10,10,0,0,0,123.94,177l-6.9-1.3A515.58,515.58,0,0,0,113.93,237.44Z" transform="translate(-66.35)"/><path class="cls-18" d="M119.54,156.51h0a6,6,0,0,0,7.2-4.5h0q3.45-14.56,8.11-28.83a6.16,6.16,0,0,0-3.81-7.71h0a4.85,4.85,0,0,0-1.7,0,159.84,159.84,0,0,0-12.86,39.39A6.22,6.22,0,0,0,119.54,156.51Z" transform="translate(-66.35)"/><path class="cls-18" d="M131.2,359.46a6.11,6.11,0,0,0,3.81-7.65q-4.63-14.26-8.11-28.81a6.12,6.12,0,0,0-7.21-4.61h0a6,6,0,0,0-2.9,1.7,161,161,0,0,0,12.71,39.64,6.05,6.05,0,0,0,1.7,0Z" transform="translate(-66.35)"/><rect class="cls-16" x="350.84" y="72.43" width="21.92" height="5.56" rx="2.75"/><rect class="cls-16" x="289.88" y="72.43" width="21.92" height="5.56" rx="2.75"/><rect class="cls-16" x="350.84" y="396.9" width="21.92" height="5.56" rx="2.75"/><rect class="cls-16" x="289.88" y="396.9" width="21.92" height="5.56" rx="2.75"/></svg>